<svg width="313" height="286" viewBox="0 0 313 286" fill="none" xmlns="http://www.w3.org/2000/svg">
<path d="M245.544 54.0068C248.125 54.0068 250.706 54.0068 253.296 54.0068C253.482 54.072 253.659 54.1745 253.855 54.1931C255.038 54.3142 256.222 54.4167 257.405 54.5284C257.983 54.5843 258.085 54.6961 258.178 55.2829C258.355 56.3913 258.523 57.4996 258.7 58.608C259.306 62.4641 259.921 66.3294 260.526 70.1855C260.592 70.6326 260.787 70.8654 261.234 70.9772C264.878 71.9086 268.325 73.315 271.605 75.1499C272.071 75.4107 272.425 75.4014 272.863 75.094C274.698 73.8087 276.553 72.5419 278.398 71.2752C280.792 69.6266 283.187 67.978 285.581 66.3387C286.103 65.9755 286.206 65.9848 286.662 66.3387C288.759 67.9128 290.725 69.6359 292.598 71.4708C294.293 73.1381 295.868 74.9171 297.378 76.7612C297.89 77.3853 297.89 77.3853 297.406 78.0559C294.471 82.0796 291.545 86.1033 288.61 90.127C288.265 90.5927 288.265 90.6114 288.582 91.1143C289.719 92.9492 290.743 94.8493 291.629 96.8239C292.355 98.4539 293.008 100.112 293.511 101.835C293.632 102.263 293.865 102.496 294.312 102.552C294.88 102.636 295.449 102.757 296.017 102.859C300.462 103.67 304.906 104.48 309.351 105.29C310.05 105.421 310.096 105.467 310.189 106.157C310.394 107.805 310.59 109.463 310.804 111.112C310.823 111.289 310.935 111.447 311 111.615C311 114.474 311 117.324 311 120.184C310.786 120.361 310.814 120.603 310.795 120.845C310.748 121.404 310.702 121.46 310.133 121.562C309.901 121.609 309.668 121.637 309.425 121.674C306.071 122.205 302.717 122.736 299.353 123.267C297.974 123.481 296.604 123.723 295.225 123.928C294.815 123.984 294.564 124.152 294.517 124.571C294.508 124.673 294.48 124.776 294.452 124.869C294.042 126.396 293.688 127.933 293.222 129.442C292.439 131.966 291.405 134.388 290.138 136.707C289.896 137.154 289.896 137.508 290.203 137.918C290.594 138.43 290.939 138.98 291.312 139.511C293.101 142.1 294.89 144.68 296.679 147.269C297.471 148.415 298.263 149.56 299.045 150.715C299.353 151.172 299.353 151.2 299.008 151.656C298.775 151.964 298.533 152.28 298.291 152.588C296.008 155.559 293.474 158.306 290.688 160.812C290.147 161.296 289.588 161.781 289.029 162.246C288.675 162.544 288.554 162.544 288.172 162.274C287.771 161.995 287.37 161.697 286.97 161.408C283.373 158.791 279.767 156.164 276.171 153.556C275.49 153.063 275.481 153.063 274.782 153.519C270.925 156.034 266.778 157.915 262.343 159.154C261.849 159.294 261.626 159.545 261.533 160.048C261.207 161.939 260.843 163.82 260.489 165.711C259.911 168.831 259.324 171.961 258.747 175.081C258.616 175.789 258.607 175.817 257.88 175.91C257.051 176.013 256.222 176.078 255.402 176.18C255.197 176.208 254.992 176.311 254.796 176.376C251.367 176.376 247.929 176.376 244.5 176.376C244.276 176.124 243.969 176.199 243.689 176.162C243.298 176.115 243.186 176.022 243.102 175.64C243.046 175.379 243.009 175.109 242.963 174.839C242.217 170.145 241.472 165.441 240.726 160.747C240.615 160.039 240.577 160.02 239.897 159.843C238.499 159.48 237.092 159.145 235.723 158.707C232.564 157.71 229.564 156.36 226.722 154.655C226.237 154.367 225.874 154.376 225.427 154.702C224.588 155.317 223.722 155.875 222.864 156.472C219.547 158.754 216.23 161.035 212.913 163.317C212.429 163.653 212.401 163.634 211.944 163.271C209.028 160.97 206.335 158.437 203.866 155.661C203.167 154.879 202.505 154.05 201.844 153.24C201.518 152.839 201.527 152.727 201.825 152.29C201.862 152.234 201.909 152.178 201.946 152.122C204.853 148.126 207.76 144.13 210.686 140.144C210.994 139.725 211.012 139.408 210.751 138.961C210.071 137.806 209.4 136.642 208.804 135.44C207.313 132.432 206.176 129.284 205.422 126.014C205.31 125.53 205.058 125.316 204.574 125.232C201.993 124.785 199.421 124.319 196.85 123.853C194.455 123.425 192.07 122.997 189.675 122.568C189.097 122.466 189.069 122.438 189.004 121.851C188.93 121.078 188.874 120.295 188.808 119.513C188.79 119.28 188.808 119.029 188.613 118.852C188.613 116.579 188.613 114.297 188.613 112.025C188.846 111.81 188.79 111.531 188.818 111.261C188.939 109.957 189.051 108.653 189.19 107.358C189.246 106.799 189.312 106.762 189.889 106.66C190.504 106.557 191.128 106.464 191.753 106.362C194.921 105.859 198.098 105.365 201.266 104.862C202.477 104.666 203.679 104.461 204.891 104.284C205.254 104.229 205.487 104.08 205.562 103.707C205.58 103.595 205.627 103.474 205.655 103.362C206.801 99.1617 208.487 95.1846 210.761 91.4589C210.975 91.1143 210.956 90.8628 210.724 90.5368C209.82 89.2422 208.925 87.9382 208.031 86.6342C206.046 83.7375 204.052 80.8315 202.077 77.9255C201.76 77.4598 201.769 77.4319 202.105 76.9941C202.142 76.9382 202.189 76.8916 202.235 76.8358C204.546 73.9763 207.071 71.3218 209.857 68.9188C210.77 68.1271 211.72 67.3819 212.662 66.6275C213.072 66.3015 213.174 66.3108 213.612 66.6088C213.668 66.6461 213.724 66.6927 213.78 66.7299C217.824 69.6359 221.867 72.5326 225.902 75.4573C226.349 75.7833 226.694 75.8205 227.188 75.5411C230.235 73.79 233.449 72.4209 236.822 71.4429C237.316 71.3032 237.801 71.1635 238.294 71.0331C238.611 70.9492 238.798 70.7723 238.853 70.4463C238.881 70.26 238.928 70.083 238.956 69.8967C239.618 66.3015 240.27 62.7155 240.931 59.1203C241.174 57.8163 241.407 56.5123 241.649 55.2084C241.761 54.5936 241.835 54.5564 242.431 54.5005C243.326 54.426 244.22 54.3142 245.115 54.2024C245.283 54.1838 245.404 54.072 245.544 54.0068ZM233.104 114.782C233.077 123.714 240.186 131.547 249.848 131.566C259.268 131.584 266.732 124.021 266.732 114.782C266.732 105.235 258.747 97.7273 249.429 97.9136C240.903 98.0906 233.095 105.253 233.104 114.782Z" stroke="url(#paint0_linear)" stroke-width="4" stroke-miterlimit="10"/>
<path d="M181.303 161.079C183.884 161.079 186.465 161.079 189.056 161.079C189.242 161.145 189.419 161.247 189.615 161.266C190.798 161.387 191.981 161.489 193.165 161.601C193.742 161.657 193.845 161.769 193.938 162.356C194.115 163.464 194.283 164.572 194.46 165.681C195.066 169.537 195.681 173.402 196.286 177.258C196.351 177.705 196.547 177.938 196.994 178.05C200.638 178.981 204.085 180.388 207.365 182.223C207.831 182.483 208.185 182.474 208.623 182.167C210.458 180.881 212.313 179.615 214.157 178.348C216.552 176.699 218.947 175.051 221.341 173.411C221.863 173.048 221.966 173.057 222.422 173.411C224.519 174.985 226.485 176.709 228.358 178.543C230.053 180.211 231.628 181.99 233.138 183.834C233.65 184.458 233.65 184.458 233.165 185.129C230.23 189.152 227.305 193.176 224.37 197.2C224.025 197.665 224.025 197.684 224.342 198.187C225.478 200.022 226.503 201.922 227.389 203.897C228.115 205.526 228.768 207.184 229.271 208.908C229.392 209.336 229.625 209.569 230.072 209.625C230.64 209.709 231.209 209.83 231.777 209.932C236.222 210.742 240.666 211.553 245.111 212.363C245.809 212.493 245.856 212.54 245.949 213.229C246.154 214.878 246.35 216.536 246.564 218.184C246.583 218.361 246.695 218.52 246.76 218.687C246.76 221.547 246.76 224.397 246.76 227.256C246.546 227.433 246.574 227.675 246.555 227.918C246.508 228.476 246.462 228.532 245.893 228.635C245.66 228.681 245.427 228.709 245.185 228.747C241.831 229.278 238.477 229.808 235.113 230.339C233.734 230.554 232.364 230.796 230.985 231.001C230.575 231.057 230.324 231.224 230.277 231.643C230.268 231.746 230.24 231.848 230.212 231.941C229.802 233.469 229.448 235.006 228.982 236.515C228.199 239.039 227.165 241.46 225.898 243.78C225.655 244.227 225.655 244.581 225.963 244.99C226.354 245.503 226.699 246.052 227.072 246.583C228.861 249.172 230.65 251.752 232.439 254.342C233.231 255.487 234.023 256.633 234.805 257.788C235.113 258.244 235.113 258.272 234.768 258.729C234.535 259.036 234.293 259.353 234.051 259.66C231.768 262.631 229.233 265.379 226.447 267.885C225.907 268.369 225.348 268.853 224.789 269.319C224.435 269.617 224.314 269.617 223.932 269.347C223.531 269.067 223.13 268.769 222.73 268.481C219.133 265.863 215.527 263.237 211.931 260.629C211.25 260.135 211.241 260.135 210.542 260.592C206.685 263.106 202.538 264.988 198.103 266.227C197.609 266.366 197.386 266.618 197.293 267.121C196.966 269.012 196.603 270.893 196.249 272.784C195.671 275.904 195.084 279.034 194.507 282.154C194.376 282.862 194.367 282.89 193.64 282.983C192.811 283.085 191.981 283.15 191.162 283.253C190.957 283.281 190.752 283.383 190.556 283.448C187.127 283.448 183.689 283.448 180.26 283.448C180.036 283.197 179.729 283.271 179.449 283.234C179.058 283.188 178.946 283.095 178.862 282.713C178.806 282.452 178.769 282.182 178.722 281.912C177.977 277.217 177.232 272.514 176.486 267.819C176.374 267.111 176.337 267.093 175.657 266.916C174.259 266.553 172.852 266.217 171.483 265.78C168.324 264.783 165.324 263.432 162.482 261.728C161.997 261.439 161.634 261.449 161.187 261.774C160.348 262.389 159.482 262.948 158.624 263.544C155.307 265.826 151.99 268.108 148.673 270.39C148.189 270.725 148.161 270.707 147.704 270.343C144.788 268.043 142.095 265.509 139.626 262.734C138.927 261.951 138.265 261.123 137.604 260.312C137.278 259.912 137.287 259.8 137.585 259.362C137.622 259.306 137.669 259.25 137.706 259.194C140.613 255.199 143.52 251.203 146.446 247.217C146.754 246.797 146.772 246.481 146.511 246.034C145.831 244.879 145.16 243.714 144.564 242.513C143.073 239.504 141.936 236.356 141.182 233.087C141.07 232.603 140.818 232.388 140.334 232.305C137.753 231.858 135.181 231.392 132.609 230.926C130.215 230.498 127.829 230.069 125.435 229.641C124.857 229.538 124.829 229.51 124.764 228.924C124.689 228.15 124.634 227.368 124.568 226.586C124.55 226.353 124.568 226.101 124.373 225.924C124.373 223.652 124.373 221.37 124.373 219.097C124.606 218.883 124.55 218.604 124.578 218.333C124.699 217.029 124.811 215.725 124.95 214.431C125.006 213.872 125.071 213.835 125.649 213.732C126.264 213.63 126.888 213.537 127.513 213.434C130.681 212.931 133.858 212.438 137.026 211.935C138.237 211.739 139.439 211.534 140.651 211.357C141.014 211.301 141.247 211.152 141.321 210.78C141.34 210.668 141.387 210.547 141.415 210.435C142.561 206.234 144.247 202.257 146.521 198.532C146.735 198.187 146.716 197.935 146.483 197.609C145.58 196.315 144.685 195.011 143.791 193.707C141.806 190.81 139.812 187.904 137.837 184.998C137.52 184.532 137.529 184.504 137.865 184.067C137.902 184.011 137.948 183.964 137.995 183.908C140.306 181.049 142.831 178.394 145.617 175.991C146.53 175.2 147.48 174.455 148.421 173.7C148.831 173.374 148.934 173.383 149.372 173.681C149.428 173.719 149.484 173.765 149.54 173.803C153.583 176.709 157.627 179.605 161.662 182.53C162.109 182.856 162.454 182.893 162.948 182.614C165.995 180.863 169.209 179.493 172.582 178.516C173.076 178.376 173.56 178.236 174.054 178.106C174.371 178.022 174.557 177.845 174.613 177.519C174.641 177.333 174.688 177.156 174.716 176.969C175.377 173.374 176.03 169.788 176.691 166.193C176.933 164.889 177.166 163.585 177.409 162.281C177.52 161.666 177.595 161.629 178.191 161.573C179.086 161.499 179.98 161.387 180.875 161.275C181.043 161.256 181.164 161.145 181.303 161.079ZM168.864 221.854C168.836 230.786 175.946 238.62 185.608 238.638C195.028 238.657 202.492 231.094 202.492 221.854C202.492 212.307 194.507 204.8 185.189 204.986C176.663 205.163 168.855 212.326 168.864 221.854Z" stroke="url(#paint1_linear)" stroke-width="4" stroke-miterlimit="10"/>
<path d="M90.2413 2C94.2418 2 98.2422 2 102.257 2C102.546 2.10106 102.82 2.25986 103.124 2.28873C104.958 2.47641 106.792 2.63521 108.626 2.80845C109.522 2.89507 109.68 3.06831 109.825 3.97782C110.099 5.69578 110.359 7.41374 110.634 9.13171C111.572 15.1085 112.525 21.0997 113.464 27.0765C113.565 27.7694 113.869 28.1303 114.562 28.3036C120.209 29.7472 125.552 31.9272 130.636 34.7712C131.358 35.1754 131.907 35.161 132.586 34.6846C135.431 32.6923 138.305 30.7289 141.164 28.7656C144.876 26.2103 148.587 23.655 152.299 21.1141C153.108 20.5511 153.267 20.5655 153.974 21.1141C157.224 23.5539 160.271 26.2247 163.174 29.0687C165.802 31.6529 168.243 34.4103 170.583 37.2687C171.377 38.236 171.377 38.236 170.626 39.2754C166.077 45.5121 161.542 51.7487 156.993 57.9853C156.458 58.7072 156.458 58.736 156.949 59.5156C158.711 62.3596 160.3 65.3047 161.672 68.3653C162.798 70.8917 163.809 73.4614 164.589 76.1322C164.777 76.7963 165.138 77.1572 165.831 77.2438C166.712 77.3738 167.593 77.5614 168.474 77.7202C175.363 78.9762 182.252 80.2322 189.141 81.4882C190.224 81.6903 190.296 81.7625 190.441 82.8308C190.758 85.3861 191.062 87.9558 191.394 90.5111C191.423 90.7854 191.596 91.0308 191.697 91.2907C191.697 95.7227 191.697 100.14 191.697 104.572C191.365 104.847 191.408 105.222 191.379 105.597C191.307 106.464 191.235 106.55 190.354 106.709C189.993 106.781 189.632 106.825 189.256 106.882C184.057 107.705 178.858 108.528 173.644 109.351C171.507 109.683 169.384 110.058 167.247 110.376C166.611 110.463 166.221 110.722 166.149 111.372C166.135 111.531 166.091 111.69 166.048 111.834C165.412 114.202 164.864 116.584 164.142 118.922C162.928 122.835 161.325 126.588 159.361 130.183C158.986 130.876 158.986 131.425 159.462 132.06C160.069 132.854 160.603 133.706 161.181 134.528C163.954 138.542 166.727 142.541 169.5 146.554C170.727 148.33 171.955 150.106 173.168 151.896C173.644 152.603 173.644 152.646 173.11 153.354C172.749 153.83 172.374 154.321 171.998 154.798C168.46 159.403 164.531 163.662 160.213 167.545C159.376 168.296 158.509 169.047 157.643 169.768C157.094 170.23 156.906 170.23 156.314 169.812C155.693 169.379 155.072 168.917 154.451 168.469C148.876 164.412 143.287 160.341 137.712 156.299C136.658 155.534 136.644 155.534 135.561 156.241C129.582 160.139 123.155 163.055 116.28 164.975C115.515 165.192 115.168 165.582 115.024 166.361C114.518 169.292 113.955 172.208 113.406 175.139C112.511 179.975 111.601 184.826 110.706 189.662C110.504 190.759 110.489 190.803 109.363 190.947C108.077 191.106 106.792 191.207 105.521 191.366C105.203 191.409 104.886 191.568 104.582 191.669C99.2676 191.669 93.9385 191.669 88.6238 191.669C88.2772 191.279 87.8006 191.394 87.3673 191.337C86.7607 191.265 86.5874 191.12 86.4575 190.528C86.3708 190.124 86.313 189.705 86.2408 189.287C85.0855 182.011 83.9301 174.72 82.7747 167.444C82.6014 166.347 82.5436 166.318 81.4894 166.044C79.3231 165.481 77.1423 164.961 75.0193 164.282C70.1234 162.738 65.4731 160.644 61.0682 158.002C60.3172 157.555 59.754 157.569 59.0608 158.075C57.761 159.027 56.4179 159.894 55.0892 160.818C49.9478 164.355 44.8064 167.892 39.665 171.429C38.914 171.948 38.8707 171.919 38.163 171.356C33.6427 167.791 29.4689 163.864 25.6417 159.562C24.5586 158.349 23.5332 157.064 22.5078 155.808C22.0023 155.187 22.0168 155.014 22.4789 154.336C22.5367 154.249 22.6089 154.162 22.6667 154.076C27.1726 147.882 31.6785 141.689 36.2134 135.51C36.6899 134.861 36.7188 134.37 36.3145 133.677C35.2602 131.887 34.2203 130.082 33.2961 128.22C30.9853 123.557 29.2234 118.677 28.0536 113.61C27.8803 112.859 27.4903 112.527 26.7393 112.397C22.7389 111.704 18.7528 110.982 14.7668 110.26C11.0552 109.596 7.35802 108.932 3.6464 108.268C2.75099 108.109 2.70766 108.066 2.60657 107.157C2.49103 105.958 2.40438 104.746 2.30328 103.533C2.2744 103.172 2.30328 102.782 2 102.508C2 98.9854 2 95.4485 2 91.9259C2.36105 91.5939 2.2744 91.1608 2.31773 90.7421C2.50547 88.721 2.67878 86.6998 2.89541 84.6931C2.98206 83.8269 3.08316 83.7692 3.97857 83.6104C4.93175 83.4516 5.89937 83.3072 6.86699 83.1484C11.7773 82.3688 16.7021 81.6037 21.6124 80.8241C23.4899 80.521 25.3529 80.2033 27.2304 79.9291C27.7936 79.8424 28.1547 79.6114 28.2702 79.034C28.2991 78.8607 28.3713 78.6731 28.4146 78.4998C30.191 71.9889 32.805 65.8244 36.3289 60.0498C36.6611 59.5156 36.6322 59.1258 36.2711 58.6206C34.8702 56.6139 33.4838 54.5927 32.0974 52.5716C29.0212 48.0818 25.9306 43.5776 22.8688 39.0733C22.3778 38.3515 22.3923 38.3082 22.9122 37.6297C22.9699 37.543 23.0422 37.4709 23.1144 37.3842C26.696 32.9522 30.6098 28.8377 34.928 25.1131C36.3433 23.886 37.8164 22.731 39.2751 21.5617C39.9105 21.0564 40.0694 21.0708 40.7482 21.5328C40.8348 21.5905 40.9215 21.6627 41.0081 21.7205C47.276 26.2247 53.5439 30.7145 59.7973 35.2476C60.4905 35.7529 61.0249 35.8106 61.7903 35.3775C66.5129 32.6635 71.4954 30.5413 76.7235 29.0254C77.4889 28.8089 78.2399 28.5923 79.0053 28.3902C79.4964 28.2603 79.7852 27.986 79.8719 27.4807C79.9152 27.192 79.9874 26.9177 80.0307 26.6289C81.0561 21.0564 82.0671 15.4983 83.0924 9.92572C83.4679 7.90459 83.829 5.88346 84.2045 3.86233C84.3778 2.90951 84.4933 2.85176 85.4176 2.76514C86.8041 2.64965 88.1905 2.47641 89.5769 2.30317C89.8369 2.2743 90.0247 2.10106 90.2413 2ZM70.9611 96.1992C70.9177 110.044 81.9371 122.185 96.9135 122.214C111.515 122.243 123.083 110.52 123.083 96.1992C123.083 81.4016 110.706 69.7656 96.2637 70.0544C83.0491 70.3287 70.9466 81.4305 70.9611 96.1992Z" stroke="url(#paint2_linear)" stroke-width="4" stroke-miterlimit="10"/>
<defs>
<linearGradient id="paint0_linear" x1="188.613" y1="69.713" x2="329.249" y2="106.38" gradientUnits="userSpaceOnUse">
<stop stop-color="#FF00B8"/>
<stop offset="0.505208" stop-color="#FF655B"/>
<stop offset="1" stop-color="#FFC700"/>
</linearGradient>
<linearGradient id="paint1_linear" x1="124.373" y1="176.786" x2="265.009" y2="213.452" gradientUnits="userSpaceOnUse">
<stop stop-color="#FF00B8"/>
<stop offset="0.505208" stop-color="#FF655B"/>
<stop offset="1" stop-color="#FFC700"/>
</linearGradient>
<linearGradient id="paint2_linear" x1="2" y1="26.3442" x2="219.983" y2="83.1763" gradientUnits="userSpaceOnUse">
<stop stop-color="#FF00B8"/>
<stop offset="0.505208" stop-color="#FF655B"/>
<stop offset="1" stop-color="#FFC700"/>
</linearGradient>
</defs>
</svg>
