<svg width="194" height="194" viewBox="0 0 194 194" fill="none" xmlns="http://www.w3.org/2000/svg">
<path d="M90.2413 2C94.2418 2 98.2422 2 102.257 2C102.546 2.10106 102.82 2.25986 103.124 2.28873C104.958 2.47641 106.792 2.63521 108.626 2.80845C109.522 2.89507 109.68 3.06831 109.825 3.97782C110.099 5.69578 110.359 7.41374 110.634 9.13171C111.572 15.1085 112.525 21.0997 113.464 27.0765C113.565 27.7694 113.869 28.1303 114.562 28.3036C120.209 29.7472 125.552 31.9272 130.636 34.7712C131.358 35.1754 131.907 35.161 132.586 34.6846C135.431 32.6923 138.305 30.7289 141.164 28.7656C144.876 26.2103 148.587 23.655 152.299 21.1141C153.108 20.5511 153.267 20.5655 153.974 21.1141C157.224 23.5539 160.271 26.2247 163.174 29.0687C165.802 31.6529 168.243 34.4103 170.583 37.2687C171.377 38.236 171.377 38.236 170.626 39.2754C166.077 45.5121 161.542 51.7487 156.993 57.9853C156.458 58.7072 156.458 58.736 156.949 59.5156C158.711 62.3596 160.3 65.3047 161.672 68.3653C162.798 70.8917 163.809 73.4614 164.589 76.1322C164.777 76.7963 165.138 77.1572 165.831 77.2438C166.712 77.3738 167.593 77.5614 168.474 77.7202C175.363 78.9762 182.252 80.2322 189.141 81.4882C190.224 81.6903 190.296 81.7625 190.441 82.8308C190.758 85.3861 191.062 87.9558 191.394 90.5111C191.423 90.7854 191.596 91.0308 191.697 91.2907C191.697 95.7227 191.697 100.14 191.697 104.572C191.365 104.847 191.408 105.222 191.379 105.597C191.307 106.464 191.235 106.55 190.354 106.709C189.993 106.781 189.632 106.825 189.256 106.882C184.057 107.705 178.858 108.528 173.644 109.351C171.507 109.683 169.384 110.058 167.247 110.376C166.611 110.463 166.221 110.722 166.149 111.372C166.135 111.531 166.091 111.69 166.048 111.834C165.412 114.202 164.864 116.584 164.142 118.922C162.928 122.835 161.325 126.588 159.361 130.183C158.986 130.876 158.986 131.425 159.462 132.06C160.069 132.854 160.603 133.706 161.181 134.528C163.954 138.542 166.727 142.541 169.5 146.554C170.727 148.33 171.955 150.106 173.168 151.896C173.644 152.603 173.644 152.646 173.11 153.354C172.749 153.83 172.374 154.321 171.998 154.798C168.46 159.403 164.531 163.662 160.213 167.545C159.376 168.296 158.509 169.047 157.643 169.768C157.094 170.23 156.906 170.23 156.314 169.812C155.693 169.379 155.072 168.917 154.451 168.469C148.876 164.412 143.287 160.341 137.712 156.299C136.658 155.534 136.644 155.534 135.561 156.241C129.582 160.139 123.155 163.055 116.28 164.975C115.515 165.192 115.168 165.582 115.024 166.361C114.518 169.292 113.955 172.208 113.406 175.139C112.511 179.975 111.601 184.826 110.706 189.662C110.504 190.759 110.489 190.803 109.363 190.947C108.077 191.106 106.792 191.207 105.521 191.366C105.203 191.409 104.886 191.568 104.582 191.669C99.2676 191.669 93.9385 191.669 88.6238 191.669C88.2772 191.279 87.8006 191.394 87.3673 191.337C86.7607 191.265 86.5874 191.12 86.4575 190.528C86.3708 190.124 86.313 189.705 86.2408 189.287C85.0855 182.011 83.9301 174.72 82.7747 167.444C82.6014 166.347 82.5436 166.318 81.4894 166.044C79.3231 165.481 77.1423 164.961 75.0193 164.282C70.1234 162.738 65.4731 160.644 61.0682 158.002C60.3172 157.555 59.754 157.569 59.0608 158.075C57.761 159.027 56.4179 159.894 55.0892 160.818C49.9478 164.355 44.8064 167.892 39.665 171.429C38.914 171.948 38.8707 171.919 38.163 171.356C33.6427 167.791 29.4689 163.864 25.6417 159.562C24.5586 158.349 23.5332 157.064 22.5078 155.808C22.0023 155.187 22.0168 155.014 22.4789 154.336C22.5367 154.249 22.6089 154.162 22.6667 154.076C27.1726 147.882 31.6785 141.689 36.2134 135.51C36.6899 134.861 36.7188 134.37 36.3145 133.677C35.2602 131.887 34.2203 130.082 33.2961 128.22C30.9853 123.557 29.2234 118.677 28.0536 113.61C27.8803 112.859 27.4903 112.527 26.7393 112.397C22.7389 111.704 18.7528 110.982 14.7668 110.26C11.0552 109.596 7.35802 108.932 3.6464 108.268C2.75099 108.109 2.70766 108.066 2.60657 107.157C2.49103 105.958 2.40438 104.746 2.30328 103.533C2.2744 103.172 2.30328 102.782 2 102.508C2 98.9854 2 95.4485 2 91.9259C2.36105 91.5939 2.2744 91.1608 2.31773 90.7421C2.50547 88.721 2.67878 86.6998 2.89541 84.6931C2.98206 83.8269 3.08316 83.7692 3.97857 83.6104C4.93175 83.4516 5.89937 83.3072 6.86699 83.1484C11.7773 82.3688 16.7021 81.6037 21.6124 80.8241C23.4899 80.521 25.3529 80.2033 27.2304 79.9291C27.7936 79.8424 28.1547 79.6114 28.2702 79.034C28.2991 78.8607 28.3713 78.6731 28.4146 78.4998C30.191 71.9889 32.805 65.8244 36.3289 60.0498C36.6611 59.5156 36.6322 59.1258 36.2711 58.6206C34.8702 56.6139 33.4838 54.5927 32.0974 52.5716C29.0212 48.0818 25.9306 43.5776 22.8688 39.0733C22.3778 38.3515 22.3923 38.3082 22.9122 37.6297C22.9699 37.543 23.0422 37.4709 23.1144 37.3842C26.696 32.9522 30.6098 28.8377 34.928 25.1131C36.3433 23.886 37.8164 22.731 39.2751 21.5617C39.9105 21.0564 40.0694 21.0708 40.7482 21.5328C40.8348 21.5905 40.9215 21.6627 41.0081 21.7205C47.276 26.2247 53.5439 30.7145 59.7973 35.2476C60.4905 35.7529 61.0249 35.8106 61.7903 35.3775C66.5129 32.6635 71.4954 30.5413 76.7235 29.0254C77.4889 28.8089 78.2399 28.5923 79.0053 28.3902C79.4964 28.2603 79.7852 27.986 79.8719 27.4807C79.9152 27.192 79.9874 26.9177 80.0307 26.6289C81.0561 21.0564 82.0671 15.4983 83.0924 9.92572C83.4679 7.90459 83.829 5.88346 84.2045 3.86233C84.3778 2.90951 84.4933 2.85176 85.4176 2.76514C86.8041 2.64965 88.1905 2.47641 89.5769 2.30317C89.8369 2.2743 90.0247 2.10106 90.2413 2ZM70.9611 96.1992C70.9177 110.044 81.9371 122.185 96.9135 122.214C111.515 122.243 123.083 110.52 123.083 96.1992C123.083 81.4016 110.706 69.7656 96.2637 70.0544C83.0491 70.3287 70.9466 81.4305 70.9611 96.1992Z" stroke="url(#paint0_linear)" stroke-width="4" stroke-miterlimit="10"/>
<defs>
<linearGradient id="paint0_linear" x1="2" y1="26.3442" x2="219.983" y2="83.1763" gradientUnits="userSpaceOnUse">
<stop stop-color="#FF00B8"/>
<stop offset="0.505208" stop-color="#FF655B"/>
<stop offset="1" stop-color="#FFC700"/>
</linearGradient>
</defs>
</svg>
