<svg width="642" height="640" viewBox="0 0 642 640" fill="none" xmlns="http://www.w3.org/2000/svg">
<path d="M135.169 579.13C134.706 573.371 134.384 569.406 133.936 563.857C138.488 564.544 143.811 565.02 148.98 566.197C156.445 567.893 159.387 566.141 160.143 558.337C160.521 554.414 161.726 549.734 160.157 546.61C155.199 536.718 161.992 532.472 168.029 527.89C177.274 520.871 178.674 517.354 174.318 506.593C173.282 504.043 170.802 501.913 168.589 500.064C164.541 496.687 160.283 493.549 155.955 490.522C149.946 486.305 144.007 481.919 137.648 478.29C132.423 475.32 126.638 473.358 119.887 470.416C116.175 460.79 107.407 452.902 101.79 453.126C96.5372 448.558 92.5733 445.112 88.5953 441.651C93.5397 431.395 86.5502 423.044 83.3146 414.441C80.3031 406.44 74.3221 400.275 66.8144 395.119C61.7298 391.63 58.3121 385.059 55.3706 379.258C50.6923 370.039 47.3306 360.147 42.6943 350.914C41.4617 348.448 36.8533 347.845 35.1165 345.449C31.1665 339.971 28.0429 333.904 24.289 327.599C18.3221 329.182 22.4681 323.409 21.6697 318.842C17.6357 321.153 14.3721 323.017 10.5202 325.203C6.41609 318.926 4.59518 310.841 5.70174 302.112C6.66822 294.476 7.99889 286.896 9.10544 279.274C9.44161 276.976 10.156 274.468 9.6237 272.338C6.79428 261.143 11.5567 251.293 14.5542 241.065C18.4761 227.712 21.8378 214.191 25.9699 200.894C27.8188 194.954 30.9424 189.405 33.6737 183.254C40.0609 188.494 38.072 194.533 36.4611 200.026C34.6963 206.051 31.7548 211.711 29.6537 217.652C28.7713 220.146 28.7153 222.934 28.2951 225.596C29.0094 225.792 29.7238 225.975 30.4381 226.171C33.2816 218.086 36.4892 210.1 38.8704 201.875C41.5457 192.712 46.9384 185.748 55.5107 182.329C62.3601 179.583 66.5482 176.038 68.7753 168.71C71.0165 161.382 87.9089 151.687 94.9404 152.219C101.58 141.346 103.205 140.604 125.658 138.768C120.573 141.304 116.987 143.084 113.402 144.877C113.738 145.578 114.088 146.278 114.424 146.979C122.702 144.261 132.885 146.166 138.965 136.737C137.886 136.302 137.452 135.952 137.102 136.022C134.23 136.582 131.373 137.213 128.515 137.829C129.062 134.677 129.132 131.328 130.294 128.428C131.317 125.878 133.572 123.804 135.869 120.764C133.18 120.133 130.854 119.587 128.529 119.04C128.375 118.536 128.207 118.045 128.053 117.541C132.157 116.518 136.331 114.403 140.337 114.711C148.013 115.313 155.591 117.303 162.44 118.564C157.972 122.487 152.145 127.629 145.156 133.78C151.725 133.822 152.355 140.954 157.846 141.094C159.653 141.136 162.132 141.43 163.155 140.422C166.334 137.297 165.9 129.072 162.3 124.967C165.802 120.834 169.122 116.294 173.072 112.385C177.666 107.845 175.131 102.381 175.313 97.5049C175.481 92.7831 174.654 89.028 179.305 85.3711C182.638 82.751 183.955 77.5668 186.953 72.1164C182.4 73.9379 179.207 75.2129 176.027 76.4879C175.509 76.0396 175.005 75.6052 174.486 75.1568C175.901 72.845 177.176 70.407 178.8 68.2493C179.753 66.9882 182.064 66.3998 182.414 65.1247C183.185 62.4346 183.073 59.4782 183.325 56.6339C180.803 56.9281 177.666 56.3677 175.859 57.6707C169.164 62.4766 162.902 67.885 156.487 73.0972C155.759 73.6856 155.241 74.5263 154.47 75.0307C144.427 81.4619 134.37 87.8511 122.982 95.0949C125.448 91.3819 126.75 87.6549 129.356 85.8335C137.48 80.1589 140.141 71.0936 144.96 63.3173C147.061 59.9265 150.534 56.83 154.106 55.0086C163.169 50.3568 172.637 46.4897 183.675 41.5297C182.722 44.5701 182.386 45.635 181.826 47.4284C189.544 50.623 190.734 40.1846 197.304 39.9044C203.397 39.6522 209.35 35.9252 215.275 33.7534C213.398 27.07 215.555 25.3046 228.049 22.3062C218.258 29.8583 218.258 29.8583 221.956 34.0757C216.059 46.0834 203.243 44.7663 193.508 48.5634C192.892 53.3552 192.331 57.7688 191.547 63.9478C194.909 61.6359 196.785 60.3469 198.746 59.0018C199.097 60.1367 199.405 61.1455 200.189 63.6676C204.896 58.1891 208.972 53.4393 214.392 47.1202C213.216 50.6511 212.655 52.3184 211.759 55.0086C218.384 53.7195 223.427 52.4305 224.505 45.0465C224.828 42.8047 227.195 40.8291 228.735 38.8115C230.794 36.1073 233.008 33.5292 235.039 30.811C236.775 28.4992 238.33 26.0612 240.053 23.5532C238.498 21.2133 236.565 18.2709 233.918 14.2777C237.588 13.3109 240.431 12.5683 244.115 11.6015C243.933 15.2865 243.821 17.6964 243.625 22.0119C247.407 20.3166 250.152 19.0836 251.049 18.6912C256.175 17.9206 259.593 17.5844 262.927 16.8698C273.264 14.67 283.559 12.3441 293.756 10.0883C285.688 4.00739 275.057 12.3441 266.176 5.84287C273.824 4.764 281.444 3.41891 289.12 2.64829C329.012 -1.33092 368.399 1.86366 406.905 12.9466C417.844 16.0992 429.33 19.1957 437.916 27.8827C439.499 29.48 441.754 30.6569 443.911 31.4275C453.128 34.7202 456.784 40.8291 453.996 50.8192C451.923 50.1046 449.864 49.404 448.253 48.8436C451.755 53.2852 455.383 57.8809 459.543 63.1351C452.582 67.3806 448.576 63.2472 443.337 59.3381C446.447 58.7356 448.52 58.3293 450.593 57.9229C450.859 57.2504 451.111 56.5918 451.377 55.9193C447.721 54.0418 444.261 51.3936 440.382 50.4269C431.179 48.129 421.794 46.5878 412.466 44.8083C407.101 43.7855 399.831 52.3464 400.63 57.5446C401.736 64.7604 403.753 71.9062 396.469 78.3374C388.401 85.4692 392.562 99.0461 403.067 101.876C404.972 102.395 408.053 101.162 409.636 99.7047C413.04 96.5801 415.603 96.8183 418.432 100.181C421.57 103.908 424.61 107.775 428.167 111.068C429.68 112.469 433.742 113.716 434.344 113.029C436.193 110.914 437.734 107.873 437.916 105.099C438.154 101.414 437.314 97.5469 436.291 93.946C435.731 92.0125 434.148 89.9528 432.44 88.8319C426.781 85.1189 422.2 81.518 426.108 73.5736C427.019 71.7381 425.142 68.5295 424.329 65.0267C429.722 64.2841 433.196 65.7693 432.58 71.626C431.795 79.1361 436.446 83.2274 441.404 87.0665C444.57 89.5184 448.141 91.2558 452.007 87.4167C452.946 86.478 455.369 87.0244 457.68 86.8423C454.543 90.3591 452.414 92.7551 450.27 95.165C453.212 96.9024 456.153 98.6258 459.095 100.363C458.913 100.84 458.717 101.33 458.535 101.806C456.644 101.694 454.767 101.596 451.377 101.4C452.792 104.623 453.702 107.047 454.893 109.33C457.428 114.122 455.691 117.359 450.439 117.443C449.514 117.457 448.197 117.051 447.735 117.513C442.076 123.272 434.737 120.287 428.42 121.408C428.42 119.194 429.218 116.42 428.167 114.907C427.313 113.674 424.259 113.954 421.71 113.478C420.618 111.39 419.245 108.77 417.872 106.15C412.466 109.12 412.466 109.12 419.077 124.701C412.073 126.312 407.661 129.661 405.294 137.507C403.529 143.364 396.932 147.946 392.001 152.555C390.797 153.676 387.659 152.723 385.012 152.723C385.292 153.9 385.628 155.316 385.964 156.773C381.804 157.431 377.714 158.076 373.624 158.72C373.554 159.491 373.484 160.276 373.414 161.046C375.081 161.789 376.706 162.7 378.442 163.218C386.679 165.712 393.01 174.707 392.477 183.184C392.141 188.508 389.858 191.325 384.115 190.974C376.692 190.512 369.24 190.162 361.816 190.33C359.071 190.386 356.367 192.039 353.636 192.964C355.009 202.534 357.824 211.291 352.698 220.216C351.521 222.262 355.149 226.661 355.583 230.108C356.269 235.698 360.135 233.639 363.287 234.479C367.041 235.474 370.36 238.066 372.868 239.411C379.129 238.263 384.886 237.058 390.671 236.175C397.548 235.124 404.257 224.644 402.787 217.792C401.484 211.739 404.846 207.438 409.888 204.719C414.286 202.366 416.682 199.507 415.911 194.183C415.141 188.789 419.203 188.326 422.733 189.335C428.279 190.932 432.397 189.167 435.815 185.202C440.55 179.709 443.897 183.03 448.029 186.239C453.968 190.834 460.426 194.757 466.687 198.933C471.113 201.875 475.917 204.383 479.909 207.816C481.674 209.343 483.089 213.168 482.389 215.116C481.688 217.063 478.228 218.268 475.763 219.221C473.83 219.978 471.547 219.866 469.432 220.132C469.292 220.931 469.152 221.743 468.998 222.542C473.228 224.223 477.444 225.905 482.683 227.978C481.632 219.025 492.782 212.272 482.361 203.304C485.974 203.304 487.893 203.304 491.801 203.304C484.378 196.719 475.847 195.346 469.502 190.792C463.255 186.309 454.879 182.385 454.206 172.437C455.607 172.213 456.616 171.765 456.882 172.031C464.081 179.527 473.83 182.287 482.935 186.281C488.229 188.606 492.474 191.871 493.986 197.994C494.505 200.11 496.143 202.113 497.67 203.795C502.138 208.713 506.747 213.491 511.425 218.198C512.742 219.529 514.465 220.454 516.384 221.841C516.888 217.035 517.266 213.322 517.728 209.007C514.661 206.079 510.893 202.478 507.615 199.353C509.366 197.756 510.515 196.677 511.705 195.64C513.05 194.463 514.843 192.123 515.739 192.418C517.798 193.104 520.179 194.701 521.104 196.579C523.513 201.413 524.718 207.101 529.704 210.016C534.789 212.986 539.803 219.151 546.359 212.187C546.751 211.767 547.871 211.501 548.32 211.753C554.189 215.06 557.382 212.019 559.399 205.658C567.439 216.503 569.176 227.782 569.624 239.369C569.68 240.715 568.294 243.307 567.579 243.307C558.026 243.307 551.835 254.249 541.4 251.195C536.988 249.906 532.478 248.757 527.939 248.169C524.718 247.762 520.222 247.188 518.387 248.911C516.314 250.845 516.524 255.272 515.865 258.649C515.361 261.227 515.571 264.099 514.409 266.299C514.03 267.028 510.249 266.383 508.232 265.725C502.082 263.721 495.303 263.483 490.765 257.234C489.28 255.188 484.265 255.609 480.82 255.132C477.598 254.684 474.222 254.978 471.127 254.151C465.972 252.778 462.583 250.929 465.174 243.755C466.449 240.224 463.451 234.437 461.014 230.528C459.067 227.404 455.537 228.441 451.783 230.066C446.685 232.28 440.704 233.429 435.129 233.387C423.573 233.289 413.306 235.502 404.019 243.012C396.876 248.785 387.561 248.267 379.941 245.044C372.84 242.032 371.089 245.647 370.22 250.214C369.282 255.146 366.326 257.22 362.544 259.265C353.776 264.001 351.129 272.17 350.891 281.361C350.681 289.46 344.489 294.476 339.027 296.381C328.381 300.108 324.459 308.852 319.277 316.838C312.609 327.122 306.516 337.799 300.493 347.789C311.265 363.3 304.471 377.199 298.897 390.846C297.552 394.152 296.081 396.24 298.701 399.449C299.807 400.808 299.667 403.218 300.017 405.151C300.353 406.931 299.989 409.243 300.984 410.434C305.368 415.618 310.2 420.424 314.767 425.454C317.848 428.844 322.302 431.941 323.437 435.934C326.126 445.378 332.962 449.679 340.778 453.616C343.859 455.172 346.815 457.091 349.504 459.263C356.437 464.825 363.707 465.68 372.419 463.663C381.076 461.659 390.264 462.051 399.131 460.776C403.599 460.132 407.913 458.226 412.255 456.783C421.234 453.813 430.072 450.31 439.205 447.914C444.766 446.443 449.612 448.166 452.217 454.485C452.876 456.082 457.372 457.666 459.249 456.965C479.377 449.539 479.587 459.249 475.931 473.33C475.007 476.917 473.774 480.504 472.107 483.783C469.712 488.477 470.889 492.035 474.993 494.586C486.395 501.661 486.142 512.478 487.739 524.416C489.77 539.562 476.646 544.438 472.528 555.002C470.104 561.181 468.213 566.323 470.371 572.909C471.379 575.991 470.202 579.802 469.964 583.277C469.712 587.088 469.18 590.899 469.152 594.71C469.11 600.315 466.014 603.958 461.532 606.242C436.025 619.286 409.006 628.127 380.922 633.298C315.327 645.375 251.791 638.216 190.72 611.132C170.424 602.206 151.179 591.32 135.169 579.13ZM328.507 18.1728C307.987 10.985 286.795 14.0815 265.014 20.2605C268.754 26.2013 259.089 38.6013 249.2 42.7347C249.746 43.8976 250.292 45.0465 250.909 46.3496C237.742 48.6895 233.218 57.4605 227.699 68.8097C225.892 72.5227 229.114 81.8262 232.559 83.7458C233.442 84.2362 235.123 84.4323 235.823 83.9279C242.869 78.8418 249.704 73.4755 256.764 68.4034C259.397 66.5119 262.31 64.8025 265.35 63.7516C268.361 62.7148 271.779 62.8829 274.889 62.0422C284.455 59.4642 293.896 56.3677 303.519 54.0138C314.921 51.2115 315.439 50.7912 312.932 40.1706C323.073 37.9428 325.356 35.8551 326.322 28.5132C326.743 25.2906 327.653 22.124 328.507 18.1728ZM357.642 109.513C363.357 115.355 369.394 121.548 376.033 128.344C373.022 129.465 371.173 130.151 370.206 130.516C369.814 134.004 369.492 136.765 369.156 139.749C370.655 140.281 372.714 141.01 375.039 141.837C372.293 144.261 370.024 146.278 367.363 148.632C377.21 146.573 386.118 144.723 394.635 142.944C394.495 140.954 394.537 139.357 394.242 137.801C393.934 136.19 393.78 134.172 392.758 133.136C388.205 128.526 383.359 124.21 378.639 119.755C376.65 117.877 374.717 115.93 372.686 113.94C373.05 112.917 373.428 112.077 373.652 111.208C373.918 110.157 374.072 109.078 374.226 108.238C368.666 105.547 363.511 99.4104 357.642 109.513ZM347.627 140.982C351.871 139.301 357.908 138.684 360.626 135.335C363.147 132.239 362.11 126.256 362.643 121.548C359.533 121.394 355.849 120.133 353.468 121.38C350.611 122.865 347.949 126.172 346.913 129.269C345.96 132.183 347.207 135.84 347.627 140.982ZM306.18 67.3946C306.362 73.2513 308.561 78.8979 317.624 77.5107C320.818 77.0203 324.151 76.2918 326.953 74.7925C328.76 73.8118 329.712 71.2477 331.057 69.3842C328.816 68.1932 326.574 66.0215 324.319 66.0075C318.352 65.9654 312.385 66.8481 306.18 67.3946ZM37.1335 288.493C34.8784 282.776 32.6232 277.06 30.3681 271.343C25.2695 282.58 25.2695 282.58 37.1335 288.493ZM23.9949 265.865C24.6392 265.767 25.2695 265.683 25.9139 265.585C27.8468 255.679 24.7093 236.791 21.1375 235.026C22.0759 245.198 23.0424 255.524 23.9949 265.865ZM377.994 25.2065C373.204 22.8386 368.554 17.3321 360.752 22.6424C365.766 25.4587 370.22 27.9527 374.142 30.1525C375.459 28.4431 376.622 26.9719 377.994 25.2065Z" stroke="white" stroke-width="2" stroke-miterlimit="10"/>
<path d="M621.688 340.277C635.849 306.37 640.177 274.27 626.352 241.75C625.54 241.722 624.727 241.694 623.915 241.652C623.915 245.253 623.915 248.867 623.915 253.099C610.594 240.363 605.93 232.334 608.045 227.78C610.692 230.779 613.549 234.029 617.163 238.121C619.488 234.604 620.413 233.231 621.267 231.928C623.2 232.488 625.203 233.063 628.523 234.029C651.663 323.576 640.037 409.115 591.656 489.4C591.012 489.232 590.354 489.077 589.71 488.909C595.55 471.521 601.097 454.021 607.302 436.759C615.272 414.621 626.562 393.618 630.274 370.051C632.207 357.791 633.467 345.419 635.036 333.089C634.378 332.949 633.734 332.823 633.075 332.683C630.232 338.386 627.374 344.088 624.503 349.833C623.256 349.371 622.29 349.315 622.052 348.88C616.659 339.03 611.448 329.068 605.958 319.26C600.845 310.111 595.284 301.228 590.242 292.036C585.255 282.957 580.689 273.653 575.128 262.879C578.154 263.846 581.711 263.86 583.028 265.597C590.27 275.097 599.178 283.559 602.358 295.805C603.1 298.664 606.154 300.891 607.975 303.512C613.073 310.839 617.555 318.35 618.116 327.695C618.34 331.282 620.063 334.771 621.688 340.277Z" stroke="white" stroke-width="2" stroke-miterlimit="10"/>
<path d="M4.40921 368.536C3.61081 344.016 2.7984 319.496 2 294.976C2.64432 294.962 3.28865 294.934 3.93297 294.92C3.93297 301.66 3.84893 308.399 3.97499 315.138C4.03102 317.913 3.89095 320.967 4.96949 323.391C11.5808 338.201 9.05954 353.221 6.93047 368.269C6.09005 368.367 5.24963 368.452 4.40921 368.536Z" stroke="white" stroke-width="2" stroke-miterlimit="10"/>
<path d="M558.397 529.77C563.916 523.184 569.435 516.599 574.953 510.014C575.458 510.406 575.948 510.784 576.452 511.177C571.059 517.902 565.667 524.628 560.288 531.353C559.658 530.821 559.027 530.302 558.397 529.77Z" stroke="white" stroke-width="2" stroke-miterlimit="10"/>
</svg>
