<svg width="31" height="31" viewBox="0 0 31 31" fill="none" xmlns="http://www.w3.org/2000/svg">
<path d="M2.24054 0.751709H28.9336C29.8528 0.751709 30.5844 1.48328 30.5844 2.40244V29.1143C30.5844 30.0147 29.8528 30.765 28.9336 30.765H21.2802V19.1349H25.182L25.7635 14.6141H21.2802V11.7253C21.2802 10.4123 21.6554 9.51185 23.5312 9.51185H25.9323V5.46005C25.5196 5.40378 24.094 5.29123 22.4433 5.29123C18.973 5.29123 16.6094 7.39216 16.6094 11.2751V14.6141H12.6889V19.1349H16.6094V30.765H2.24054C1.80099 30.7651 1.37917 30.5918 1.06661 30.2827C0.754054 29.9737 0.575984 29.5538 0.571045 29.1143V2.40244C0.571045 1.48328 1.32138 0.751709 2.24054 0.751709Z" fill="#676565"/>
</svg>
