<svg width="174" height="320" viewBox="0 0 174 320" fill="none" xmlns="http://www.w3.org/2000/svg">
<path d="M63.4788 179.523C65.6657 179.298 68.6868 179.185 71.6402 178.667C88.7747 175.713 100.769 166.086 107.961 150.35C110.801 144.127 112.605 137.589 113.484 130.78C114.612 122.1 113.507 113.758 109.652 105.913C105.255 97.0073 99.6641 88.8008 92.9005 81.5637C87.1739 75.4314 83.8598 68.5776 83.6343 60.2133C83.5216 55.7042 83.5216 51.1726 83.0932 46.6861C82.8903 44.4766 81.8081 42.3574 81.1318 40.193C76.5325 36.3829 71.4373 33.452 65.4628 32.7756C57.617 31.8738 50.4701 34.196 44.0672 38.6599C42.3087 39.8774 40.46 41.2076 40.1444 43.7101C39.2651 50.4061 38.4084 57.1246 37.3262 63.7755C36.6949 67.6082 36.0186 71.5085 33.5837 74.755C31.9604 76.9194 30.3146 79.0837 28.6913 81.2481C23.6412 88.0342 18.4107 94.7302 13.5859 101.674C9.12197 108.122 6.86744 115.404 6.93507 123.318C7.02525 131.186 8.2427 138.874 10.9481 146.291C14.5779 156.211 20.327 164.531 29.0971 170.595C39.1975 177.562 50.6505 179.591 63.4788 179.523ZM84.3107 25.0877C84.5136 24.9749 84.7165 24.8847 84.9194 24.772C84.6263 23.7124 84.5812 22.4048 84.0176 21.5931C82.2365 19.1582 80.5005 16.5655 78.3136 14.6492C70.558 7.86301 61.7428 7.02883 52.5218 9.62155C46.5472 11.2899 41.6549 15.0324 37.732 20.4208C36.5822 21.9989 36.5371 22.5626 37.2811 23.8702C44.1574 17.3095 52.2963 14.7619 61.0439 14.1982C70.31 13.5895 77.6824 18.324 84.3107 25.0877ZM85.235 31.4905C84.987 30.7465 84.8969 29.8447 84.446 29.3036C76.8482 20.2855 67.9428 15.2579 56.6025 17.5124C49.929 18.8426 43.684 21.1648 38.5436 26.4855C37.1233 27.9509 36.0862 29.3036 37.5066 31.3778C50.3574 17.7604 73.6242 21.0971 85.235 31.4905ZM83.747 16.4077C83.9049 16.295 84.0401 16.1822 84.198 16.0695C83.8823 14.9873 83.7696 13.7023 83.206 12.8681C81.9885 11.1321 80.6809 9.39609 79.1253 8.04337C67.7173 -1.85403 53.7167 0.084865 42.8047 7.77283C40.1444 9.64409 38.3182 12.4623 37.3938 16.543C44.1123 8.99028 51.8454 5.58593 60.7508 5.49575C69.7689 5.38302 77.5245 8.76482 83.747 16.4077Z" fill="url(#paint0_linear)" stroke="white" stroke-width="2.5" stroke-miterlimit="10"/>
<path d="M63.4799 179.524C50.6516 179.591 39.1986 177.585 29.0982 170.596C20.3281 164.531 14.5565 156.189 10.9492 146.269C8.2438 138.852 7.00381 131.164 6.93617 123.295C6.84599 115.382 9.12307 108.1 13.587 101.652C18.4118 94.6854 23.6423 88.012 28.6924 81.2258C30.3157 79.0615 31.9615 76.8971 33.5848 74.7328C36.0197 71.4862 36.696 67.5859 37.3273 63.7532C38.4095 57.0798 39.2662 50.3838 40.1455 43.6878C40.4611 41.1853 42.3098 39.8551 44.0684 38.6377C50.4938 34.1962 57.6406 31.8515 65.4639 32.7533C71.4384 33.4297 76.5562 36.3606 81.1329 40.1708C81.8092 42.3351 82.8689 44.4544 83.0943 46.6638C83.5227 51.1503 83.5227 55.6819 83.6354 60.191C83.8609 68.5553 87.1525 75.4091 92.9016 81.5415C99.6652 88.7785 105.256 96.985 109.653 105.89C113.531 113.736 114.635 122.078 113.485 130.758C112.606 137.567 110.803 144.082 107.962 150.327C100.77 166.064 88.7758 175.691 71.6413 178.644C68.6879 179.163 65.6668 179.298 63.4799 179.524Z" fill="url(#paint1_linear)" stroke="white" stroke-width="2.5" stroke-miterlimit="10"/>
<path d="M84.3078 25.0892C77.6569 18.3256 70.3071 13.5911 61.0185 14.1998C52.2709 14.7634 44.132 17.2885 37.2557 23.8717C36.5117 22.5641 36.5568 22.0005 37.7066 20.4223C41.6295 15.034 46.5443 11.2914 52.4963 9.62308C61.7174 7.03036 70.5326 7.88709 78.2656 14.6732C80.4525 16.5896 82.1885 19.1823 83.9696 21.6172C84.5558 22.4063 84.6009 23.7139 84.8714 24.7961C84.7136 24.8863 84.5107 24.999 84.3078 25.0892Z" fill="url(#paint2_linear)" stroke="white" stroke-width="2.5" stroke-miterlimit="10"/>
<path d="M85.2308 31.491C73.6425 21.0975 50.3757 17.7608 37.5023 31.3782C36.082 29.3041 37.119 27.9513 38.5394 26.4859C43.7023 21.1652 49.9248 18.843 56.5982 17.5128C67.916 15.2583 76.8439 20.2859 84.4417 29.3041C84.8701 29.8226 84.9603 30.747 85.2308 31.491Z" fill="url(#paint3_linear)" stroke="white" stroke-width="2.5" stroke-miterlimit="10"/>
<path d="M83.7546 16.4077C77.5321 8.76482 69.7765 5.38302 60.7583 5.49575C51.8304 5.58593 44.1199 9.01282 37.4014 16.543C38.3483 12.4623 40.1744 9.64409 42.8122 7.77283C53.7242 0.0848651 67.7249 -1.85403 79.1103 8.04337C80.6433 9.37355 81.9735 11.1095 83.191 12.8681C83.7771 13.7023 83.8673 14.9873 84.183 16.0695C84.0477 16.1822 83.8899 16.295 83.7546 16.4077Z" fill="url(#paint4_linear)" stroke="white" stroke-width="2.5" stroke-miterlimit="10"/>
<path d="M112.382 316.263C109.519 299.805 108.324 283.166 107.174 266.528C107.061 264.814 106.791 263.124 106.633 261.41C105.754 251.445 100.591 244.772 91.3248 240.984C83.9975 237.985 76.8732 234.491 69.5234 231.515C66.818 230.433 63.6391 230.546 60.9111 229.531C58.1155 228.494 55.5904 226.758 52.9751 225.247C50.9461 224.075 48.8944 222.948 47.0006 221.572C36.3818 213.749 23.9818 209.285 12.4161 203.311C9.12445 201.597 7.14046 199.253 7.00519 195.307C6.84737 191.091 6.39647 186.853 5.72011 182.682C5.40447 180.743 4.14193 178.984 3.44303 177.091C2.92448 175.693 2.31576 174.227 2.24812 172.762C2.04521 167.892 2.02267 163.022 2.00012 158.152C1.97758 154.478 5.04374 152.696 8.33536 154.365C12.0328 156.214 12.3033 156.123 14.1972 152.336C15.0764 150.555 15.8881 148.728 16.9251 147.038C18.8415 143.949 22.2684 143.521 25.0415 145.865C28.1302 148.48 28.9193 152.967 27.0255 157.273C25.6051 160.497 24.0495 163.653 22.7418 166.923C22.3135 168.005 22.2233 169.357 22.3586 170.53C22.7869 173.912 23.6437 177.226 23.8691 180.608C24.0495 183.223 25.064 184.147 27.5665 184.53C30.1367 184.914 31.2865 184.147 32.1207 181.712C34.7134 174.024 37.4865 166.404 40.3047 158.806C41.9505 154.342 45.3774 151.208 48.7817 148.097C50.4275 146.587 52.0057 145.009 53.5613 143.408C54.621 142.326 55.5679 141.108 56.65 140.026C59.13 137.523 61.5649 136.892 63.9096 138.042C66.7053 139.417 68.5089 142.416 68.0354 145.572C67.7198 147.646 68.4413 148.796 70.0194 150.126C74.506 153.914 77.3241 158.942 79.9619 164.127C81.7881 167.712 83.8172 171.251 86.2295 174.475C88.5291 177.541 89.6339 177.406 92.2942 174.678C95.8789 171.003 99.8695 168.095 104.897 166.629C106.385 166.201 107.603 164.916 108.978 164.037C111.57 162.391 114.321 163.248 115.29 166.133C116.282 169.109 116.26 172.018 113.96 174.498C111.255 177.384 108.414 180.179 105.776 183.133C103.003 186.221 103.026 187.01 106.408 189.242C118.898 197.517 127.735 209.06 134.161 222.181C138.512 231.087 141.691 240.736 144.058 250.385C146.922 262.019 151.25 273.066 155.196 284.271C159.389 296.22 164.642 307.673 171 318.608L141.691 317.435L112.382 316.263ZM60.0093 158.874C59.7387 158.806 59.4682 158.716 59.1977 158.648C58.4988 159.934 57.4617 161.128 57.1686 162.504C55.9962 167.937 55.2071 173.483 53.9446 178.894C52.9075 183.336 55.162 186.514 57.4391 189.761C57.8449 190.325 58.7918 190.708 59.5358 190.798C63.2558 191.249 66.8856 190.956 70.3351 189.242C71.9358 188.453 72.7925 187.168 72.2514 185.545C71.4623 183.088 70.4703 180.675 69.2754 178.398C67.7198 175.4 65.6682 172.627 64.2253 169.583C62.602 166.111 61.4071 162.436 60.0093 158.874Z" fill="url(#paint5_linear)" stroke="white" stroke-width="2.5" stroke-miterlimit="10"/>
<defs>
<linearGradient id="paint0_linear" x1="6.93359" y1="24.1743" x2="135.072" y2="44.2226" gradientUnits="userSpaceOnUse">
<stop stop-color="#FF00B8"/>
<stop offset="0.505208" stop-color="#FF655B"/>
<stop offset="1" stop-color="#FFC700"/>
</linearGradient>
<linearGradient id="paint1_linear" x1="6.93359" y1="51.4251" x2="133.662" y2="75.4737" gradientUnits="userSpaceOnUse">
<stop stop-color="#FF00B8"/>
<stop offset="0.505208" stop-color="#FF655B"/>
<stop offset="1" stop-color="#FFC700"/>
</linearGradient>
<linearGradient id="paint2_linear" x1="36.7587" y1="10.4305" x2="74.7006" y2="38.727" gradientUnits="userSpaceOnUse">
<stop stop-color="#FF00B8"/>
<stop offset="0.505208" stop-color="#FF655B"/>
<stop offset="1" stop-color="#FFC700"/>
</linearGradient>
<linearGradient id="paint3_linear" x1="36.8242" y1="18.8394" x2="70.6578" y2="48.2535" gradientUnits="userSpaceOnUse">
<stop stop-color="#FF00B8"/>
<stop offset="0.505208" stop-color="#FF655B"/>
<stop offset="1" stop-color="#FFC700"/>
</linearGradient>
<linearGradient id="paint4_linear" x1="37.4014" y1="3.25543" x2="72.409" y2="31.2608" gradientUnits="userSpaceOnUse">
<stop stop-color="#FF00B8"/>
<stop offset="0.505208" stop-color="#FF655B"/>
<stop offset="1" stop-color="#FFC700"/>
</linearGradient>
<linearGradient id="paint5_linear" x1="2" y1="160.735" x2="197.815" y2="208.364" gradientUnits="userSpaceOnUse">
<stop stop-color="#FF00B8"/>
<stop offset="0.505208" stop-color="#FF655B"/>
<stop offset="1" stop-color="#FFC700"/>
</linearGradient>
</defs>
</svg>
