<svg width="513" height="250" viewBox="0 0 513 250" fill="none" xmlns="http://www.w3.org/2000/svg">
<path d="M40.4796 166.924C32.0533 166.924 24.2123 166.924 15.6188 166.924C24.2588 135.685 32.7315 105.015 41.2229 74.3074C33.0567 72.8158 32.8802 72.9277 30.8642 79.7237C26.4606 94.602 22.0941 109.49 17.5883 124.34C16.9287 126.512 16.0833 129.262 14.4204 130.325C12.2093 131.733 8.74398 132.814 6.50501 132.05C4.24747 131.276 2.12928 128.302 1.26528 125.832C0.549929 123.771 1.43251 120.947 2.12928 118.616C7.39688 100.923 12.776 83.2475 18.1643 65.5911C22.0756 52.7636 31.3752 45.8185 44.6324 45.7719C56.8584 45.7346 69.0938 45.716 81.3198 45.7812C94.8651 45.8465 105.828 53.9942 109.767 66.8962C115.062 84.2636 120.321 101.64 125.504 119.036C126.118 121.077 126.508 123.305 126.396 125.412C126.201 129.234 123.953 131.751 120.265 132.684C116.456 133.644 113.557 132.012 111.671 128.759C110.751 127.183 110.241 125.328 109.711 123.557C105.354 108.986 101.034 94.4062 96.7138 79.8262C94.6514 72.8811 94.2055 72.6294 85.9836 74.4286C94.5306 105.024 103.068 135.583 111.764 166.729C103.486 166.729 95.6826 166.729 87.3585 166.729C87.2284 168.957 87.0426 170.737 87.0426 172.518C87.0241 194.416 87.0612 216.323 87.0055 238.221C86.9869 245.054 83.7353 248.737 77.9753 248.811C72.0853 248.895 68.6757 245.259 68.6571 238.575C68.6014 219.782 68.6386 200.988 68.6386 182.194C68.6386 177.244 68.6386 172.294 68.6386 166.934C65.4799 166.934 62.6556 166.934 59.2461 166.934C59.1624 168.574 58.9859 170.355 58.9859 172.135C58.9673 193.101 58.9766 214.076 58.9766 235.042C58.9766 236.133 58.9952 237.214 58.9673 238.305C58.8094 245.101 55.6136 248.774 49.8443 248.811C43.8892 248.848 40.5818 245.092 40.5168 238.025C40.4518 231.351 40.4982 224.666 40.4982 217.992C40.4982 202.768 40.4982 187.545 40.4982 172.322C40.4796 170.663 40.4796 168.994 40.4796 166.924Z" stroke="white" stroke-width="2" stroke-miterlimit="10"/>
<path d="M347.965 74.438C356.512 105.024 365.05 135.592 373.755 166.738C365.468 166.738 357.655 166.738 349.34 166.738C349.219 168.966 349.033 170.756 349.024 172.536C349.005 194.434 349.043 216.342 348.987 238.24C348.968 245.073 345.707 248.746 339.938 248.821C334.048 248.895 330.657 245.259 330.638 238.575C330.592 219.157 330.62 199.748 330.62 180.33C330.62 176.004 330.62 171.679 330.62 166.934C327.461 166.934 324.628 166.934 321.218 166.934C321.134 168.593 320.967 170.374 320.967 172.154C320.949 193.586 320.958 215.027 320.939 236.459C320.939 238.314 320.977 240.225 320.577 242.015C319.602 246.369 316.601 248.513 312.272 248.783C307.794 249.063 304.031 246.658 303.037 242.621C302.526 240.542 302.498 238.314 302.498 236.152C302.461 215.027 302.48 193.903 302.48 172.779C302.48 170.961 302.48 169.143 302.48 166.915C294.044 166.915 286.203 166.915 277.619 166.915C286.259 135.676 294.741 105.006 303.232 74.2795C294.899 72.8252 294.917 72.8345 292.743 80.1898C288.386 94.919 284.057 109.658 279.588 124.359C278.929 126.522 278.074 129.281 276.411 130.334C274.2 131.733 270.735 132.814 268.496 132.04C266.247 131.257 264.203 128.283 263.256 125.804C262.531 123.911 263.367 121.217 264.018 119.036C269.387 101.044 274.832 83.0797 280.341 65.125C284.113 52.8289 293.487 45.8279 306.196 45.772C318.58 45.716 330.964 45.7067 343.348 45.772C356.893 45.8372 367.846 53.9942 371.785 66.9056C377.071 84.273 382.339 101.65 387.523 119.045C388.136 121.087 388.526 123.315 388.415 125.431C388.21 129.244 385.962 131.761 382.274 132.684C378.465 133.634 375.566 132.003 373.68 128.75C372.761 127.165 372.25 125.319 371.72 123.548C367.363 108.977 363.043 94.397 358.723 79.8169C356.642 72.8998 356.122 72.6108 347.965 74.438Z" stroke="white" stroke-width="2" stroke-miterlimit="10"/>
<path d="M170.251 73.6262C166.776 73.6262 164.035 73.6262 160.598 73.6262C160.598 75.4348 160.598 77.0755 160.598 78.7162C160.598 96.2701 160.617 113.815 160.57 131.368C160.561 133.363 160.459 135.433 159.938 137.344C158.916 141.11 156.185 143.021 152.339 142.872C148.446 142.723 146.087 140.364 145.195 136.673C144.832 135.191 144.907 133.587 144.907 132.04C144.888 112.472 144.86 92.9047 144.907 73.3279C144.944 56.3893 155.646 45.6594 172.471 45.6408C189.036 45.6221 205.591 45.6408 222.156 45.6874C239.092 45.734 249.961 56.669 250.008 73.7381C250.064 93.1471 250.026 112.565 250.017 131.984C250.017 133.382 250.036 134.799 249.794 136.16C249.088 140.271 245.948 143.217 242.223 143.049C238.163 142.872 235.599 140.588 234.772 136.626C234.391 134.827 234.391 132.925 234.382 131.07C234.354 112.127 234.363 93.1937 234.363 73.85C231.269 73.85 228.436 73.85 224.813 73.85C224.813 75.6678 224.813 77.6162 224.813 79.5552C224.794 130.958 224.775 182.371 224.757 233.774C224.757 235.48 224.84 237.204 224.636 238.892C223.911 244.849 219.025 249.006 213.135 248.792C207.43 248.587 202.85 244.336 202.497 238.509C202.228 234.025 202.386 229.504 202.386 225.001C202.376 199.533 202.386 174.055 202.386 148.587C202.386 146.75 202.386 144.914 202.386 142.732C199.116 142.732 196.263 142.732 192.64 142.732C192.64 144.504 192.64 146.293 192.64 148.083C192.64 176.656 192.65 205.238 192.64 233.811C192.64 235.675 192.687 237.559 192.436 239.395C191.739 244.513 187.512 248.391 182.393 248.773C177.144 249.174 172.425 246.182 170.994 241.166C170.371 238.976 170.279 236.58 170.279 234.277C170.241 182.716 170.251 131.154 170.251 79.5925C170.251 77.7653 170.251 75.9289 170.251 73.6262Z" stroke="white" stroke-width="2" stroke-miterlimit="10"/>
<path d="M464.375 142.567C460.863 142.567 458.113 142.567 454.629 142.567C454.629 144.543 454.629 146.342 454.629 148.142C454.629 176.714 454.629 205.296 454.62 233.869C454.62 235.734 454.667 237.617 454.407 239.444C453.728 244.385 449.696 248.207 444.791 248.757C439.57 249.335 434.637 246.501 433.104 241.579C432.388 239.267 432.258 236.694 432.258 234.242C432.212 182.681 432.221 131.119 432.221 79.5575C432.221 77.7303 432.221 75.8938 432.221 73.759C428.942 73.759 426.09 73.759 422.569 73.759C422.569 75.4743 422.569 77.115 422.569 78.7651C422.569 96.319 422.587 113.863 422.541 131.417C422.531 133.412 422.411 135.473 421.9 137.393C420.952 140.963 418.36 142.865 414.728 142.893C410.854 142.921 408.299 140.768 407.277 137.076C406.831 135.463 406.877 133.692 406.868 131.995C406.84 112.428 406.812 92.8604 406.859 73.2929C406.896 56.3637 417.608 45.671 434.47 45.6523C451.034 45.6337 467.589 45.6523 484.154 45.699C500.867 45.7456 511.895 56.6526 511.96 73.3302C512.034 93.0561 511.979 112.782 511.96 132.499C511.96 133.888 511.988 135.333 511.653 136.666C510.687 140.553 508.207 143.042 504.138 143.024C500.319 143.005 497.718 140.814 496.854 137.039C496.417 135.1 496.352 133.049 496.343 131.044C496.306 112.111 496.324 93.168 496.324 73.8523C493.212 73.8523 490.369 73.8523 486.774 73.8523C486.774 75.726 486.774 77.6744 486.774 79.6227C486.755 131.026 486.737 182.438 486.718 233.841C486.718 235.547 486.802 237.272 486.588 238.959C485.854 244.916 480.949 249.046 475.05 248.813C469.345 248.589 464.756 244.338 464.468 238.484C464.189 232.751 464.356 226.999 464.347 221.247C464.338 197.018 464.347 172.79 464.347 148.561C464.375 146.725 464.375 144.897 464.375 142.567Z" stroke="white" stroke-width="2" stroke-miterlimit="10"/>
<path d="M83.7809 21.2014C83.7902 32.3509 74.8436 41.3562 63.7603 41.3469C52.7141 41.3375 43.7118 32.267 43.7304 21.1641C43.749 10.0613 52.7791 0.981384 63.7974 1.00003C74.8808 1.028 83.7623 10.0054 83.7809 21.2014Z" stroke="white" stroke-width="2" stroke-miterlimit="10"/>
<path d="M345.757 21.3138C345.72 32.4446 336.69 41.4406 325.625 41.3474C314.551 41.2542 305.632 32.165 305.707 21.0528C305.781 9.94997 314.867 0.916679 325.885 1.00058C336.959 1.08448 345.794 10.1085 345.757 21.3138Z" stroke="white" stroke-width="2" stroke-miterlimit="10"/>
<path d="M177.469 21.0897C177.487 9.98686 186.527 0.953568 197.564 1.00018C208.656 1.05611 217.547 10.0521 217.519 21.2016C217.491 32.3883 208.601 41.2631 197.452 41.2351C186.332 41.2165 177.441 32.2578 177.469 21.0897Z" stroke="white" stroke-width="2" stroke-miterlimit="10"/>
<path d="M439.468 21.1269C439.477 10.0147 448.489 0.972098 459.525 1.00006C470.618 1.02803 479.527 10.024 479.518 21.1642C479.5 32.3602 470.646 41.235 459.488 41.235C448.368 41.2444 439.458 32.2856 439.468 21.1269Z" stroke="white" stroke-width="2" stroke-miterlimit="10"/>
</svg>
