<svg width="35px" height="35px" viewBox="0 0 36 35" fill="none" xmlns="http://www.w3.org/2000/svg">
<path fill-rule="evenodd" clip-rule="evenodd" d="M10.7614 0.229636C12.5951 0.145223 13.1797 0.126465 17.8505 0.126465C22.5214 0.126465 23.106 0.146786 24.9381 0.229636C26.7701 0.312485 28.0207 0.604802 29.1149 1.02843C30.2607 1.46143 31.3003 2.1383 32.16 3.01368C33.0354 3.87188 33.7107 4.90984 34.1421 6.05722C34.5673 7.15146 34.8581 8.40202 34.9425 10.231C35.0269 12.0677 35.0457 12.6523 35.0457 17.3216C35.0457 21.9924 35.0254 22.5771 34.9425 24.4107C34.8597 26.2396 34.5673 27.4902 34.1421 28.5844C33.7107 29.732 33.0343 30.7716 32.16 31.6311C31.3003 32.5065 30.2607 33.1818 29.1149 33.6132C28.0207 34.0384 26.7701 34.3292 24.9412 34.4136C23.106 34.498 22.5214 34.5167 17.8505 34.5167C13.1797 34.5167 12.5951 34.4964 10.7614 34.4136C8.93251 34.3307 7.68195 34.0384 6.58772 33.6132C5.44021 33.1817 4.40053 32.5053 3.54105 31.6311C2.66626 30.7724 1.98929 29.7332 1.55736 28.586C1.13373 27.4917 0.842979 26.2412 0.758566 24.4123C0.674154 22.5755 0.655396 21.9909 0.655396 17.3216C0.655396 12.6508 0.675717 12.0661 0.758566 10.2341C0.841416 8.40202 1.13373 7.15146 1.55736 6.05722C1.98993 4.90997 2.66741 3.87081 3.54262 3.01212C4.40087 2.13752 5.43951 1.46056 6.58616 1.02843C7.68039 0.604802 8.93095 0.314048 10.7599 0.229636H10.7614ZM24.7989 3.32476C22.9856 3.24191 22.4416 3.22472 17.8505 3.22472C13.2594 3.22472 12.7154 3.24191 10.9021 3.32476C9.22483 3.40136 8.31505 3.68117 7.70853 3.91721C6.90661 4.22985 6.33292 4.60033 5.73109 5.20216C5.16059 5.75717 4.72155 6.43283 4.44614 7.1796C4.2101 7.78612 3.93029 8.6959 3.85369 10.3732C3.77084 12.1865 3.75365 12.7305 3.75365 17.3216C3.75365 21.9127 3.77084 22.4567 3.85369 24.27C3.93029 25.9473 4.2101 26.8571 4.44614 27.4636C4.72126 28.2093 5.16052 28.8861 5.73109 29.441C6.28602 30.0116 6.96288 30.4509 7.70853 30.726C8.31505 30.962 9.22483 31.2418 10.9021 31.3184C12.7154 31.4013 13.2579 31.4185 17.8505 31.4185C22.4432 31.4185 22.9856 31.4013 24.7989 31.3184C26.4762 31.2418 27.386 30.962 27.9925 30.726C28.7945 30.4134 29.3682 30.0429 29.97 29.441C30.5405 28.8861 30.9798 28.2093 31.2549 27.4636C31.491 26.8571 31.7708 25.9473 31.8474 24.27C31.9302 22.4567 31.9474 21.9127 31.9474 17.3216C31.9474 12.7305 31.9302 12.1865 31.8474 10.3732C31.7708 8.6959 31.491 7.78612 31.2549 7.1796C30.9423 6.37768 30.5718 5.80399 29.97 5.20216C29.4149 4.6317 28.7393 4.19266 27.9925 3.91721C27.386 3.68117 26.4762 3.40136 24.7989 3.32476ZM15.6542 22.6224C16.8808 23.133 18.2466 23.2019 19.5184 22.8174C20.7901 22.4328 21.8889 21.6187 22.627 20.514C23.3652 19.4094 23.697 18.0827 23.5656 16.7606C23.4343 15.4385 22.8481 14.203 21.907 13.2651C21.3071 12.6656 20.5818 12.2065 19.7832 11.921C18.9846 11.6355 18.1326 11.5305 17.2886 11.6138C16.4445 11.697 15.6295 11.9664 14.902 12.4024C14.1746 12.8385 13.5529 13.4304 13.0817 14.1356C12.6105 14.8407 12.3015 15.6416 12.1769 16.4805C12.0524 17.3195 12.1154 18.1756 12.3614 18.9872C12.6075 19.7989 13.0304 20.5459 13.5998 21.1744C14.1691 21.803 14.8708 22.2975 15.6542 22.6224ZM11.6009 11.072C12.4216 10.2512 13.3959 9.60021 14.4682 9.15604C15.5406 8.71187 16.6899 8.48326 17.8505 8.48326C19.0112 8.48326 20.1605 8.71187 21.2328 9.15604C22.3051 9.60021 23.2795 10.2512 24.1002 11.072C24.9209 11.8927 25.5719 12.867 26.0161 13.9393C26.4603 15.0116 26.6889 16.1609 26.6889 17.3216C26.6889 18.4823 26.4603 19.6316 26.0161 20.7039C25.5719 21.7762 24.9209 22.7505 24.1002 23.5713C22.4427 25.2288 20.1946 26.1599 17.8505 26.1599C15.5065 26.1599 13.2584 25.2288 11.6009 23.5713C9.94337 21.9137 9.01219 19.6657 9.01219 17.3216C9.01219 14.9775 9.94337 12.7295 11.6009 11.072ZM28.6491 9.79951C28.8525 9.60766 29.0153 9.37695 29.1279 9.12105C29.2405 8.86514 29.3006 8.58924 29.3047 8.30968C29.3088 8.03012 29.2567 7.75258 29.1516 7.4935C29.0465 7.23442 28.8905 6.99907 28.6928 6.80137C28.4951 6.60367 28.2597 6.44764 28.0007 6.34254C27.7416 6.23743 27.464 6.18537 27.1845 6.18944C26.9049 6.19352 26.629 6.25365 26.3731 6.36626C26.1172 6.47888 25.8865 6.6417 25.6946 6.84507C25.3215 7.24061 25.1172 7.76599 25.1252 8.30968C25.1331 8.85337 25.3526 9.37257 25.7371 9.75706C26.1216 10.1415 26.6408 10.3611 27.1845 10.369C27.7282 10.3769 28.2535 10.1726 28.6491 9.79951Z" fill="#676565"/>
</svg>
