<svg width="322" height="614" viewBox="0 0 322 614" fill="none" xmlns="http://www.w3.org/2000/svg">
<path d="M117.321 336.303C121.423 335.88 127.089 335.668 132.629 334.696C164.769 329.156 187.267 311.098 200.757 281.58C206.086 269.909 209.469 257.645 211.118 244.873C213.232 228.592 211.16 212.945 203.929 198.228C195.682 181.524 185.195 166.131 172.508 152.556C161.766 141.053 155.55 128.197 155.127 112.508C154.916 104.05 154.916 95.5502 154.112 87.1347C153.732 82.9903 151.702 79.0152 150.433 74.9554C141.806 67.8085 132.249 62.3109 121.042 61.0422C106.325 59.3507 92.9197 63.7065 80.9095 72.0797C77.611 74.3633 74.1433 76.8584 73.5512 81.5525C71.9019 94.1124 70.295 106.715 68.2651 119.19C67.081 126.379 65.8123 133.695 61.2451 139.785C58.2002 143.844 55.1131 147.904 52.0683 151.964C42.5955 164.693 32.7844 177.253 23.7346 190.278C15.3613 202.373 11.1324 216.032 11.2592 230.876C11.4284 245.635 13.712 260.055 18.7867 273.968C25.5953 292.576 36.379 308.18 52.8295 319.556C71.7751 332.623 93.258 336.429 117.321 336.303ZM156.396 46.6216C156.776 46.4102 157.157 46.241 157.538 46.0296C156.988 44.042 156.903 41.5892 155.846 40.0668C152.505 35.4996 149.249 30.6363 145.147 27.0417C130.599 14.3127 114.064 12.748 96.768 17.6112C85.5614 20.7407 76.3846 27.7607 69.0263 37.8678C66.8695 40.828 66.785 41.8852 68.1805 44.338C81.0787 32.0319 96.3451 27.2532 112.753 26.196C130.134 25.0541 143.963 33.9349 156.396 46.6216ZM158.13 58.6318C157.664 57.2362 157.495 55.5447 156.649 54.5297C142.398 37.614 125.694 28.1835 104.422 32.4125C91.9047 34.9075 80.1906 39.2633 70.5487 49.2436C67.8845 51.9924 65.9392 54.5297 68.6034 58.4203C92.7082 32.8776 136.351 39.1364 158.13 58.6318ZM155.339 30.3403C155.635 30.1289 155.888 29.9174 156.184 29.706C155.592 27.6761 155.381 25.2656 154.324 23.7009C152.04 20.4446 149.587 17.1884 146.669 14.651C125.271 -3.91395 99.0093 -0.277079 78.5414 14.1435C73.5512 17.6535 70.1258 22.9397 68.3919 30.594C80.9941 16.4272 95.4993 10.0415 112.204 9.87233C129.119 9.66088 143.667 16.0043 155.339 30.3403Z" stroke="white" stroke-width="2.5" stroke-miterlimit="10"/>
<path d="M117.322 336.304C93.2594 336.431 71.7765 332.667 52.831 319.558C36.3805 308.182 25.5544 292.535 18.7882 273.928C13.7135 260.015 11.3876 245.594 11.2607 230.835C11.0915 215.992 15.3627 202.332 23.736 190.237C32.7859 177.17 42.597 164.652 52.0698 151.923C55.1146 147.864 58.2017 143.804 61.2465 139.744C65.8137 133.654 67.0824 126.338 68.2665 119.149C70.2964 106.632 71.9034 94.0718 73.5527 81.5119C74.1447 76.8178 77.6124 74.3228 80.911 72.0391C92.9634 63.7082 106.369 59.3101 121.043 61.0017C132.25 62.2703 141.85 67.7679 150.434 74.9148C151.703 78.9746 153.691 82.9498 154.114 87.0941C154.917 95.5096 154.917 104.01 155.129 112.468C155.551 128.157 161.726 141.013 172.509 152.515C185.196 166.09 195.684 181.484 203.93 198.188C211.204 212.904 213.276 228.551 211.119 244.833C209.47 257.604 206.087 269.826 200.759 281.54C187.268 311.058 164.77 329.115 132.631 334.655C127.091 335.628 121.424 335.881 117.322 336.304Z" stroke="white" stroke-width="2.5" stroke-miterlimit="10"/>
<path d="M156.389 46.6217C143.914 33.935 130.128 25.0542 112.705 26.1961C96.2963 27.2533 81.0299 31.9897 68.1317 44.3381C66.7361 41.8853 66.8207 40.8281 68.9775 37.8679C76.3358 27.7607 85.5548 20.7407 96.7192 17.6113C114.015 12.7481 130.551 14.3551 145.056 27.0841C149.158 30.6787 152.414 35.542 155.755 40.1092C156.854 41.5893 156.939 44.0421 157.446 46.072C157.15 46.2411 156.77 46.4526 156.389 46.6217Z" stroke="white" stroke-width="2.5" stroke-miterlimit="10"/>
<path d="M158.123 58.6294C136.386 39.1341 92.7437 32.8753 68.5965 58.418C65.9323 54.5274 67.8776 51.99 70.5418 49.2412C80.226 39.261 91.8979 34.9052 104.415 32.4101C125.645 28.1812 142.391 37.6117 156.643 54.5274C157.446 55.5 157.615 57.2339 158.123 58.6294Z" stroke="white" stroke-width="2.5" stroke-miterlimit="10"/>
<path d="M155.351 30.3403C143.679 16.0043 129.132 9.66088 112.216 9.87233C95.4695 10.0415 81.0066 16.4694 68.4044 30.594C70.1806 22.9397 73.606 17.6535 78.5538 14.1435C99.0218 -0.277079 125.283 -3.91395 146.639 14.651C149.515 17.1461 152.01 20.4023 154.294 23.7009C155.393 25.2656 155.562 27.6761 156.154 29.706C155.901 29.9174 155.605 30.1289 155.351 30.3403Z" stroke="white" stroke-width="2.5" stroke-miterlimit="10"/>
<path d="M209.048 592.79C203.677 561.919 201.436 530.709 199.279 499.5C199.068 496.286 198.56 493.114 198.264 489.9C196.615 471.208 186.931 458.691 169.55 451.586C155.806 445.962 142.443 439.407 128.656 433.825C123.582 431.795 117.619 432.006 112.502 430.103C107.258 428.158 102.522 424.902 97.6161 422.068C93.8101 419.869 89.9617 417.755 86.4095 415.175C66.4912 400.501 43.2322 392.127 21.5378 380.921C15.3636 377.707 11.6422 373.309 11.3884 365.908C11.0924 358 10.2466 350.05 8.97795 342.226C8.3859 338.589 6.01771 335.291 4.70674 331.738C3.73409 329.117 2.59228 326.368 2.46541 323.619C2.08481 314.484 2.04252 305.35 2.00023 296.216C1.95794 289.322 7.70927 285.982 13.8835 289.111C20.8189 292.579 21.3264 292.41 24.8787 285.305C26.528 281.964 28.0504 278.539 29.9957 275.367C33.5903 269.573 40.0182 268.77 45.2198 273.168C51.0134 278.073 52.4935 286.489 48.9412 294.566C46.277 300.614 43.3591 306.534 40.9063 312.666C40.1028 314.696 39.9336 317.233 40.1874 319.432C40.9909 325.776 42.5979 331.992 43.0207 338.336C43.3591 343.241 45.2621 344.975 49.9562 345.694C54.7771 346.413 56.9339 344.975 58.4986 340.408C63.3618 325.987 68.5634 311.693 73.8496 297.442C76.9367 289.069 83.3646 283.19 89.7503 277.355C92.8374 274.521 95.7977 271.561 98.7156 268.558C100.703 266.529 102.479 264.245 104.509 262.215C109.161 257.521 113.728 256.337 118.126 258.494C123.37 261.073 126.753 266.698 125.865 272.618C125.273 276.509 126.626 278.666 129.587 281.161C138.002 288.265 143.288 297.696 148.236 307.422C151.662 314.146 155.468 320.786 159.993 326.833C164.306 332.584 166.378 332.331 171.368 327.214C178.092 320.32 185.578 314.865 195.008 312.116C197.799 311.313 200.083 308.902 202.662 307.253C207.526 304.166 212.685 305.773 214.503 311.186C216.364 316.768 216.322 322.223 212.008 326.875C206.934 332.288 201.605 337.532 196.657 343.072C191.456 348.866 191.498 350.346 197.841 354.532C221.27 370.052 237.847 391.705 249.899 416.317C258.061 433.021 264.024 451.121 268.464 469.221C273.835 491.042 281.955 511.764 289.355 532.781C297.221 555.195 307.074 576.677 319 597.188L264.024 594.989L209.048 592.79ZM110.81 297.569C110.303 297.442 109.795 297.273 109.288 297.146C107.977 299.556 106.032 301.798 105.482 304.377C103.283 314.569 101.803 324.972 99.4345 335.122C97.4892 343.453 101.718 349.415 105.989 355.505C106.751 356.562 108.527 357.281 109.922 357.45C116.9 358.296 123.709 357.746 130.179 354.532C133.181 353.052 134.788 350.642 133.773 347.597C132.293 342.987 130.433 338.462 128.191 334.191C125.273 328.567 121.425 323.365 118.718 317.656C115.674 311.144 113.432 304.25 110.81 297.569Z" stroke="white" stroke-width="2.5" stroke-miterlimit="10"/>
</svg>
