<svg width="35" height="35" viewBox="0 0 35 35" fill="none" xmlns="http://www.w3.org/2000/svg">
<path fill-rule="evenodd" clip-rule="evenodd" d="M0.553345 3.43639C0.553345 2.67438 0.856051 1.94358 1.39487 1.40476C1.93369 0.865942 2.66449 0.563236 3.4265 0.563236H32.0673C32.445 0.562619 32.819 0.636492 33.1681 0.780625C33.5171 0.924757 33.8343 1.13632 34.1015 1.4032C34.3686 1.67008 34.5805 1.98703 34.725 2.33591C34.8696 2.6848 34.9438 3.05876 34.9436 3.43639V32.0772C34.944 32.4549 34.87 32.829 34.7257 33.1781C34.5814 33.5271 34.3697 33.8443 34.1027 34.1114C33.8356 34.3786 33.5186 34.5905 33.1696 34.735C32.8206 34.8795 32.4466 34.9537 32.0689 34.9535H3.4265C3.04906 34.9535 2.67532 34.8791 2.32663 34.7347C1.97794 34.5902 1.66114 34.3784 1.39432 34.1114C1.1275 33.8445 0.915899 33.5276 0.771602 33.1788C0.627305 32.83 0.55314 32.4562 0.553345 32.0788V3.43639ZM14.1656 13.6753H18.8224V16.0139C19.4946 14.6695 21.2141 13.4596 23.798 13.4596C28.7518 13.4596 29.9258 16.1373 29.9258 21.0505V30.1514H24.9126V22.1697C24.9126 19.3716 24.2404 17.7928 22.5334 17.7928C20.1652 17.7928 19.1804 19.4951 19.1804 22.1697V30.1514H14.1656V13.6753ZM5.56807 29.9372H10.5828V13.4596H5.56807V29.9357V29.9372ZM11.3003 8.08533C11.3098 8.51469 11.2334 8.94163 11.0756 9.34107C10.9178 9.7405 10.6818 10.1044 10.3815 10.4114C10.0812 10.7184 9.72257 10.9623 9.3267 11.1289C8.93084 11.2954 8.50569 11.3812 8.07622 11.3812C7.64675 11.3812 7.2216 11.2954 6.82573 11.1289C6.42986 10.9623 6.07125 10.7184 5.77093 10.4114C5.47061 10.1044 5.23463 9.7405 5.07686 9.34107C4.91908 8.94163 4.84268 8.51469 4.85213 8.08533C4.87069 7.24254 5.21852 6.44052 5.82113 5.85103C6.42374 5.26154 7.23323 4.93145 8.07622 4.93145C8.91921 4.93145 9.72869 5.26154 10.3313 5.85103C10.9339 6.44052 11.2817 7.24254 11.3003 8.08533Z" fill="#676565"/>
</svg>
