<svg width="43" height="43" viewBox="0 0 43 43" fill="none" xmlns="http://www.w3.org/2000/svg">
<path d="M42.8055 40.7542L31.0003 28.9489C33.8372 25.5432 35.2518 21.1749 34.95 16.7527C34.6481 12.3306 32.653 8.19502 29.3796 5.20639C26.1063 2.21776 21.8068 0.606154 17.3754 0.706842C12.9441 0.80753 8.72221 2.61275 5.58798 5.74698C2.45376 8.8812 0.648533 13.1031 0.547845 17.5344C0.447157 21.9657 2.05876 26.2653 5.04739 29.5386C8.03602 32.812 12.1716 34.8071 16.5938 35.109C21.0159 35.4108 25.3842 33.9962 28.7899 31.1593L40.5952 42.9645L42.8055 40.7542ZM3.72569 17.9534C3.72569 15.1709 4.5508 12.4508 6.0967 10.1373C7.64259 7.82366 9.83983 6.02043 12.4106 4.9556C14.9813 3.89077 17.81 3.61216 20.5391 4.15501C23.2682 4.69785 25.775 6.03777 27.7425 8.00532C29.7101 9.97287 31.05 12.4797 31.5929 15.2088C32.1357 17.9378 31.8571 20.7666 30.7923 23.3373C29.7274 25.908 27.9242 28.1053 25.6106 29.6512C23.297 31.1971 20.577 32.0222 17.7944 32.0222C14.0644 32.018 10.4884 30.5345 7.8509 27.897C5.21339 25.2595 3.72982 21.6834 3.72569 17.9534Z" fill="#EAEAEA"/>
</svg>
