<svg width="36" height="30" viewBox="0 0 36 30" fill="none" xmlns="http://www.w3.org/2000/svg">
<path d="M35.6069 3.71744C34.3017 4.29582 32.8995 4.68662 31.4254 4.86326C32.9464 3.95316 34.0843 2.52076 34.6268 0.833349C33.1978 1.68215 31.6338 2.27961 30.0029 2.59976C28.9061 1.42872 27.4534 0.652528 25.8703 0.391706C24.2872 0.130884 22.6623 0.400018 21.2478 1.15733C19.8333 1.91463 18.7085 3.11774 18.0478 4.57986C17.3872 6.04198 17.2277 7.68131 17.5942 9.24334C14.6987 9.09795 11.8661 8.34536 9.28027 7.03439C6.69443 5.72343 4.41314 3.88339 2.58445 1.6337C1.95917 2.71231 1.59964 3.96286 1.59964 5.29471C1.59894 6.49367 1.89419 7.67427 2.4592 8.73175C3.02421 9.78924 3.84151 10.6909 4.83857 11.3568C3.68224 11.32 2.55142 11.0075 1.54023 10.4454V10.5392C1.54012 12.2208 2.12179 13.8507 3.18656 15.1522C4.25133 16.4537 5.73362 17.3468 7.38189 17.6799C6.3092 17.9702 5.18457 18.013 4.09293 17.805C4.55798 19.2519 5.46385 20.5171 6.68372 21.4236C7.90359 22.3301 9.3764 22.8325 10.896 22.8603C8.31642 24.8853 5.13072 25.9837 1.85131 25.9789C1.2704 25.9791 0.689975 25.9451 0.113037 25.8773C3.44182 28.0176 7.31677 29.1535 11.2742 29.1491C24.6708 29.1491 31.9944 18.0535 31.9944 8.43047C31.9944 8.11784 31.9866 7.80207 31.9725 7.48943C33.397 6.45925 34.6267 5.18356 35.6038 3.72213L35.6069 3.71744Z" fill="#676565"/>
</svg>
