<svg width="301" height="121" viewBox="0 0 301 121" fill="none" xmlns="http://www.w3.org/2000/svg">
<path d="M8.94 92.84C9.47333 92.84 9.98667 92.7333 10.48 92.52C10.9733 92.3067 11.4333 91.9933 11.86 91.58L12.78 92.58C12.2467 93.0867 11.6467 93.48 10.98 93.76C10.3133 94.04 9.62 94.18 8.9 94.18C8.19333 94.18 7.52667 94.0467 6.9 93.78C6.27333 93.5133 5.73333 93.1467 5.28 92.68C4.82667 92.2133 4.46667 91.66 4.2 91.02C3.93333 90.38 3.8 89.7 3.8 88.98C3.8 88.26 3.93333 87.5867 4.2 86.96C4.46667 86.32 4.82667 85.7667 5.28 85.3C5.73333 84.8333 6.27333 84.4667 6.9 84.2C7.52667 83.92 8.19333 83.78 8.9 83.78C9.62 83.78 10.32 83.92 11 84.2C11.6933 84.48 12.3 84.8667 12.82 85.36L11.88 86.44C11.48 86.0267 11.02 85.7067 10.5 85.48C9.98 85.2533 9.45333 85.14 8.92 85.14C8.41333 85.14 7.93333 85.24 7.48 85.44C7.02667 85.64 6.63333 85.9133 6.3 86.26C5.98 86.6067 5.72667 87.0133 5.54 87.48C5.35333 87.9467 5.26 88.4467 5.26 88.98C5.26 89.5267 5.35333 90.04 5.54 90.52C5.74 90.9867 6 91.3933 6.32 91.74C6.65333 92.0733 7.04667 92.34 7.5 92.54C7.95333 92.74 8.43333 92.84 8.94 92.84ZM14.5139 94V80L15.9939 79.66V85.16C16.3806 84.7067 16.8406 84.3667 17.3739 84.14C17.9072 83.9 18.5006 83.78 19.1539 83.78C20.2872 83.78 21.2139 84.14 21.9339 84.86C22.6539 85.58 23.0139 86.5133 23.0139 87.66V94H21.5539V87.96C21.5539 87.08 21.3006 86.38 20.7939 85.86C20.2872 85.34 19.6072 85.08 18.7539 85.08C18.1539 85.08 17.6139 85.2133 17.1339 85.48C16.6672 85.7467 16.2872 86.1267 15.9939 86.62V94H14.5139ZM28.6505 94.18C27.5571 94.18 26.6638 93.9 25.9705 93.34C25.2905 92.78 24.9505 92.0533 24.9505 91.16C24.9505 90.2267 25.3105 89.4867 26.0305 88.94C26.7505 88.38 27.7238 88.1 28.9505 88.1C29.4838 88.1 29.9971 88.16 30.4905 88.28C30.9971 88.4 31.4638 88.5667 31.8905 88.78V87.46C31.8905 86.66 31.6638 86.06 31.2105 85.66C30.7571 85.2467 30.0971 85.04 29.2305 85.04C28.7371 85.04 28.2371 85.1133 27.7305 85.26C27.2371 85.3933 26.6905 85.6133 26.0905 85.92L25.5305 84.78C26.2505 84.4333 26.9171 84.18 27.5305 84.02C28.1438 83.86 28.7571 83.78 29.3705 83.78C30.6371 83.78 31.6105 84.08 32.2905 84.68C32.9838 85.28 33.3305 86.14 33.3305 87.26V94H31.8905V93.02C31.4371 93.4067 30.9371 93.7 30.3905 93.9C29.8571 94.0867 29.2771 94.18 28.6505 94.18ZM26.3705 91.12C26.3705 91.68 26.6038 92.14 27.0705 92.5C27.5505 92.8467 28.1638 93.02 28.9105 93.02C29.5105 93.02 30.0571 92.9267 30.5505 92.74C31.0438 92.5533 31.4905 92.26 31.8905 91.86V89.98C31.4771 89.7 31.0305 89.5 30.5505 89.38C30.0838 89.2467 29.5638 89.18 28.9905 89.18C28.1905 89.18 27.5505 89.36 27.0705 89.72C26.6038 90.0667 26.3705 90.5333 26.3705 91.12ZM35.803 94V83.98H37.283V85.16C37.6696 84.7067 38.1296 84.3667 38.663 84.14C39.1963 83.9 39.7896 83.78 40.443 83.78C41.5763 83.78 42.503 84.14 43.223 84.86C43.943 85.58 44.303 86.5133 44.303 87.66V94H42.843V87.96C42.843 87.08 42.5896 86.38 42.083 85.86C41.5763 85.34 40.8963 85.08 40.043 85.08C39.443 85.08 38.903 85.2133 38.423 85.48C37.9563 85.7467 37.5763 86.1267 37.283 86.62V94H35.803ZM51.3195 94.08C50.6262 94.08 49.9729 93.9467 49.3595 93.68C48.7595 93.4133 48.2329 93.0533 47.7795 92.6C47.3262 92.1333 46.9662 91.5867 46.6995 90.96C46.4462 90.3333 46.3195 89.66 46.3195 88.94C46.3195 88.22 46.4462 87.5467 46.6995 86.92C46.9662 86.2933 47.3262 85.7533 47.7795 85.3C48.2329 84.8333 48.7662 84.4667 49.3795 84.2C49.9929 83.9333 50.6529 83.8 51.3595 83.8C51.9329 83.8 52.4862 83.9067 53.0195 84.12C53.5662 84.32 54.0662 84.6067 54.5195 84.98V83.98H55.9795V94.24C55.9795 95.52 55.6062 96.5 54.8595 97.18C54.1129 97.8733 53.0462 98.22 51.6595 98.22C50.9662 98.22 50.2795 98.1267 49.5995 97.94C48.9195 97.7667 48.2995 97.5133 47.7395 97.18L48.3795 96.02C48.9795 96.34 49.5329 96.5733 50.0395 96.72C50.5595 96.8667 51.0795 96.94 51.5995 96.94C52.5462 96.94 53.2662 96.7133 53.7595 96.26C54.2529 95.8067 54.4995 95.14 54.4995 94.26V92.92C54.0462 93.2933 53.5462 93.58 52.9995 93.78C52.4662 93.98 51.9062 94.08 51.3195 94.08ZM47.7795 88.94C47.7795 89.4733 47.8729 89.98 48.0595 90.46C48.2462 90.9267 48.4995 91.3333 48.8195 91.68C49.1529 92.0133 49.5462 92.28 49.9995 92.48C50.4529 92.68 50.9329 92.78 51.4395 92.78C52.0795 92.78 52.6662 92.66 53.1995 92.42C53.7329 92.18 54.1662 91.84 54.4995 91.4V86.48C54.1662 86.0533 53.7262 85.72 53.1795 85.48C52.6462 85.24 52.0662 85.12 51.4395 85.12C50.9195 85.12 50.4329 85.22 49.9795 85.42C49.5395 85.6067 49.1529 85.8733 48.8195 86.22C48.4995 86.5667 48.2462 86.9733 48.0595 87.44C47.8729 87.9067 47.7795 88.4067 47.7795 88.94ZM59.2383 82.06C58.9716 82.06 58.7383 81.96 58.5383 81.76C58.3383 81.56 58.2383 81.3267 58.2383 81.06C58.2383 80.78 58.3383 80.5467 58.5383 80.36C58.7383 80.16 58.9716 80.06 59.2383 80.06C59.5183 80.06 59.7516 80.16 59.9383 80.36C60.1383 80.5467 60.2383 80.78 60.2383 81.06C60.2383 81.3267 60.1383 81.56 59.9383 81.76C59.7516 81.96 59.5183 82.06 59.2383 82.06ZM59.9783 83.98V94H58.4983V83.98H59.9783ZM62.5022 94V83.98H63.9822V85.16C64.3689 84.7067 64.8289 84.3667 65.3622 84.14C65.8955 83.9 66.4889 83.78 67.1422 83.78C68.2755 83.78 69.2022 84.14 69.9222 84.86C70.6422 85.58 71.0022 86.5133 71.0022 87.66V94H69.5422V87.96C69.5422 87.08 69.2889 86.38 68.7822 85.86C68.2755 85.34 67.5955 85.08 66.7422 85.08C66.1422 85.08 65.6022 85.2133 65.1222 85.48C64.6555 85.7467 64.2755 86.1267 63.9822 86.62V94H62.5022ZM78.0188 94.08C77.3254 94.08 76.6721 93.9467 76.0588 93.68C75.4588 93.4133 74.9321 93.0533 74.4788 92.6C74.0254 92.1333 73.6654 91.5867 73.3988 90.96C73.1454 90.3333 73.0188 89.66 73.0188 88.94C73.0188 88.22 73.1454 87.5467 73.3988 86.92C73.6654 86.2933 74.0254 85.7533 74.4788 85.3C74.9321 84.8333 75.4654 84.4667 76.0788 84.2C76.6921 83.9333 77.3521 83.8 78.0588 83.8C78.6321 83.8 79.1854 83.9067 79.7188 84.12C80.2654 84.32 80.7654 84.6067 81.2188 84.98V83.98H82.6788V94.24C82.6788 95.52 82.3054 96.5 81.5588 97.18C80.8121 97.8733 79.7454 98.22 78.3588 98.22C77.6654 98.22 76.9788 98.1267 76.2988 97.94C75.6188 97.7667 74.9988 97.5133 74.4388 97.18L75.0788 96.02C75.6788 96.34 76.2321 96.5733 76.7388 96.72C77.2588 96.8667 77.7788 96.94 78.2988 96.94C79.2454 96.94 79.9654 96.7133 80.4588 96.26C80.9521 95.8067 81.1988 95.14 81.1988 94.26V92.92C80.7454 93.2933 80.2454 93.58 79.6988 93.78C79.1654 93.98 78.6054 94.08 78.0188 94.08ZM74.4788 88.94C74.4788 89.4733 74.5721 89.98 74.7588 90.46C74.9454 90.9267 75.1988 91.3333 75.5188 91.68C75.8521 92.0133 76.2454 92.28 76.6988 92.48C77.1521 92.68 77.6321 92.78 78.1388 92.78C78.7788 92.78 79.3654 92.66 79.8988 92.42C80.4321 92.18 80.8654 91.84 81.1988 91.4V86.48C80.8654 86.0533 80.4254 85.72 79.8788 85.48C79.3454 85.24 78.7654 85.12 78.1388 85.12C77.6188 85.12 77.1321 85.22 76.6788 85.42C76.2388 85.6067 75.8521 85.8733 75.5188 86.22C75.1988 86.5667 74.9454 86.9733 74.7588 87.44C74.5721 87.9067 74.4788 88.4067 74.4788 88.94ZM90.7344 91.76V85.24H88.5744V83.98H90.7344V81.44L92.1944 81.06V83.98H95.2144V85.24H92.1944V91.38C92.1944 91.9133 92.3144 92.3 92.5544 92.54C92.7944 92.7667 93.1877 92.88 93.7344 92.88C94.0144 92.88 94.261 92.86 94.4744 92.82C94.701 92.78 94.941 92.7133 95.1944 92.62V93.92C94.941 94.0133 94.6544 94.08 94.3344 94.12C94.0277 94.16 93.7277 94.18 93.4344 94.18C92.5677 94.18 91.901 93.9733 91.4344 93.56C90.9677 93.1467 90.7344 92.5467 90.7344 91.76ZM96.7991 94V80L98.2791 79.66V85.16C98.6657 84.7067 99.1257 84.3667 99.6591 84.14C100.192 83.9 100.786 83.78 101.439 83.78C102.572 83.78 103.499 84.14 104.219 84.86C104.939 85.58 105.299 86.5133 105.299 87.66V94H103.839V87.96C103.839 87.08 103.586 86.38 103.079 85.86C102.572 85.34 101.892 85.08 101.039 85.08C100.439 85.08 99.8991 85.2133 99.4191 85.48C98.9524 85.7467 98.5724 86.1267 98.2791 86.62V94H96.7991ZM116.216 92.94C115.656 93.3533 115.069 93.6667 114.456 93.88C113.856 94.08 113.196 94.18 112.476 94.18C111.756 94.18 111.076 94.0467 110.436 93.78C109.809 93.5133 109.262 93.1467 108.796 92.68C108.342 92.2133 107.982 91.6667 107.716 91.04C107.449 90.4 107.316 89.7133 107.316 88.98C107.316 88.26 107.442 87.5867 107.696 86.96C107.962 86.3333 108.316 85.7867 108.756 85.32C109.196 84.8533 109.716 84.4867 110.316 84.22C110.929 83.9533 111.576 83.82 112.256 83.82C112.922 83.82 113.542 83.9533 114.116 84.22C114.702 84.4867 115.202 84.8533 115.616 85.32C116.042 85.7867 116.376 86.3333 116.616 86.96C116.869 87.5867 116.996 88.26 116.996 88.98V89.44H108.776C108.882 90.4267 109.289 91.2467 109.996 91.9C110.702 92.5533 111.549 92.88 112.536 92.88C113.056 92.88 113.562 92.8 114.056 92.64C114.549 92.48 114.962 92.2533 115.296 91.96L116.216 92.94ZM112.216 85.12C111.349 85.12 110.596 85.4133 109.956 86C109.329 86.5867 108.949 87.34 108.816 88.26H115.516C115.382 87.38 115.002 86.64 114.376 86.04C113.762 85.4267 113.042 85.12 112.216 85.12ZM126.642 94H125.202L122.382 83.98H123.842L126.002 91.98L128.502 83.98H129.822L132.302 91.98L134.482 83.98H135.882L133.042 94H131.622L129.142 85.98L126.642 94ZM140.545 94.18C139.452 94.18 138.558 93.9 137.865 93.34C137.185 92.78 136.845 92.0533 136.845 91.16C136.845 90.2267 137.205 89.4867 137.925 88.94C138.645 88.38 139.618 88.1 140.845 88.1C141.378 88.1 141.892 88.16 142.385 88.28C142.892 88.4 143.358 88.5667 143.785 88.78V87.46C143.785 86.66 143.558 86.06 143.105 85.66C142.652 85.2467 141.992 85.04 141.125 85.04C140.632 85.04 140.132 85.1133 139.625 85.26C139.132 85.3933 138.585 85.6133 137.985 85.92L137.425 84.78C138.145 84.4333 138.812 84.18 139.425 84.02C140.038 83.86 140.652 83.78 141.265 83.78C142.532 83.78 143.505 84.08 144.185 84.68C144.878 85.28 145.225 86.14 145.225 87.26V94H143.785V93.02C143.332 93.4067 142.832 93.7 142.285 93.9C141.752 94.0867 141.172 94.18 140.545 94.18ZM138.265 91.12C138.265 91.68 138.498 92.14 138.965 92.5C139.445 92.8467 140.058 93.02 140.805 93.02C141.405 93.02 141.952 92.9267 142.445 92.74C142.938 92.5533 143.385 92.26 143.785 91.86V89.98C143.372 89.7 142.925 89.5 142.445 89.38C141.978 89.2467 141.458 89.18 140.885 89.18C140.085 89.18 139.445 89.36 138.965 89.72C138.498 90.0667 138.265 90.5333 138.265 91.12ZM149.842 95.3L150.422 93.98L146.342 83.98H147.982L151.222 92.2L154.722 83.98H156.322L151.342 95.5C150.916 96.46 150.442 97.1533 149.922 97.58C149.402 98.0067 148.742 98.22 147.942 98.22C147.756 98.22 147.576 98.2067 147.402 98.18C147.242 98.1667 147.109 98.1467 147.002 98.12V96.78C147.136 96.8067 147.262 96.8267 147.382 96.84C147.516 96.8533 147.669 96.86 147.842 96.86C148.296 96.86 148.682 96.7333 149.002 96.48C149.322 96.2267 149.602 95.8333 149.842 95.3ZM164.334 95.3L164.914 93.98L160.834 83.98H162.474L165.714 92.2L169.214 83.98H170.814L165.834 95.5C165.408 96.46 164.934 97.1533 164.414 97.58C163.894 98.0067 163.234 98.22 162.434 98.22C162.248 98.22 162.068 98.2067 161.894 98.18C161.734 98.1667 161.601 98.1467 161.494 98.12V96.78C161.628 96.8067 161.754 96.8267 161.874 96.84C162.008 96.8533 162.161 96.86 162.334 96.86C162.788 96.86 163.174 96.7333 163.494 96.48C163.814 96.2267 164.094 95.8333 164.334 95.3ZM171.339 88.98C171.339 88.26 171.472 87.58 171.739 86.94C172.006 86.3 172.366 85.7467 172.819 85.28C173.286 84.8133 173.832 84.4467 174.459 84.18C175.086 83.9133 175.752 83.78 176.459 83.78C177.166 83.78 177.826 83.9133 178.439 84.18C179.066 84.4467 179.606 84.8133 180.059 85.28C180.526 85.7467 180.892 86.3 181.159 86.94C181.426 87.58 181.559 88.26 181.559 88.98C181.559 89.7133 181.426 90.4 181.159 91.04C180.892 91.68 180.526 92.2333 180.059 92.7C179.606 93.1667 179.066 93.5333 178.439 93.8C177.826 94.0667 177.166 94.2 176.459 94.2C175.752 94.2 175.086 94.0667 174.459 93.8C173.832 93.5333 173.286 93.1667 172.819 92.7C172.366 92.2333 172.006 91.68 171.739 91.04C171.472 90.4 171.339 89.7133 171.339 88.98ZM176.459 92.88C176.966 92.88 177.439 92.78 177.879 92.58C178.332 92.38 178.719 92.1067 179.039 91.76C179.372 91.4 179.632 90.9867 179.819 90.52C180.006 90.04 180.099 89.5267 180.099 88.98C180.099 88.4333 180.006 87.9267 179.819 87.46C179.632 86.98 179.372 86.5667 179.039 86.22C178.719 85.8733 178.332 85.6 177.879 85.4C177.439 85.2 176.966 85.1 176.459 85.1C175.952 85.1 175.472 85.2 175.019 85.4C174.579 85.6 174.192 85.8733 173.859 86.22C173.539 86.5667 173.279 86.98 173.079 87.46C172.892 87.9267 172.799 88.4333 172.799 88.98C172.799 89.5267 172.892 90.04 173.079 90.52C173.266 90.9867 173.519 91.4 173.839 91.76C174.172 92.1067 174.566 92.38 175.019 92.58C175.472 92.78 175.952 92.88 176.459 92.88ZM185.035 83.98V90.02C185.035 90.9 185.289 91.6 185.795 92.12C186.302 92.64 186.982 92.9 187.835 92.9C188.435 92.9 188.969 92.7667 189.435 92.5C189.915 92.22 190.302 91.8333 190.595 91.34V83.98H192.075V94H190.595V92.84C190.209 93.2933 189.749 93.6333 189.215 93.86C188.695 94.0867 188.109 94.2 187.455 94.2C186.309 94.2 185.375 93.84 184.655 93.12C183.935 92.4 183.575 91.4667 183.575 90.32V83.98H185.035ZM203.429 94.08C202.736 94.08 202.082 93.9467 201.469 93.68C200.869 93.4133 200.342 93.0533 199.889 92.6C199.436 92.1333 199.076 91.5867 198.809 90.96C198.556 90.3333 198.429 89.66 198.429 88.94C198.429 88.22 198.556 87.5467 198.809 86.92C199.076 86.2933 199.436 85.7533 199.889 85.3C200.342 84.8333 200.876 84.4667 201.489 84.2C202.102 83.9333 202.762 83.8 203.469 83.8C204.042 83.8 204.596 83.9067 205.129 84.12C205.676 84.32 206.176 84.6067 206.629 84.98V83.98H208.089V94.24C208.089 95.52 207.716 96.5 206.969 97.18C206.222 97.8733 205.156 98.22 203.769 98.22C203.076 98.22 202.389 98.1267 201.709 97.94C201.029 97.7667 200.409 97.5133 199.849 97.18L200.489 96.02C201.089 96.34 201.642 96.5733 202.149 96.72C202.669 96.8667 203.189 96.94 203.709 96.94C204.656 96.94 205.376 96.7133 205.869 96.26C206.362 95.8067 206.609 95.14 206.609 94.26V92.92C206.156 93.2933 205.656 93.58 205.109 93.78C204.576 93.98 204.016 94.08 203.429 94.08ZM199.889 88.94C199.889 89.4733 199.982 89.98 200.169 90.46C200.356 90.9267 200.609 91.3333 200.929 91.68C201.262 92.0133 201.656 92.28 202.109 92.48C202.562 92.68 203.042 92.78 203.549 92.78C204.189 92.78 204.776 92.66 205.309 92.42C205.842 92.18 206.276 91.84 206.609 91.4V86.48C206.276 86.0533 205.836 85.72 205.289 85.48C204.756 85.24 204.176 85.12 203.549 85.12C203.029 85.12 202.542 85.22 202.089 85.42C201.649 85.6067 201.262 85.8733 200.929 86.22C200.609 86.5667 200.356 86.9733 200.169 87.44C199.982 87.9067 199.889 88.4067 199.889 88.94ZM210.148 88.98C210.148 88.26 210.281 87.58 210.548 86.94C210.814 86.3 211.174 85.7467 211.628 85.28C212.094 84.8133 212.641 84.4467 213.268 84.18C213.894 83.9133 214.561 83.78 215.268 83.78C215.974 83.78 216.634 83.9133 217.248 84.18C217.874 84.4467 218.414 84.8133 218.868 85.28C219.334 85.7467 219.701 86.3 219.968 86.94C220.234 87.58 220.368 88.26 220.368 88.98C220.368 89.7133 220.234 90.4 219.968 91.04C219.701 91.68 219.334 92.2333 218.868 92.7C218.414 93.1667 217.874 93.5333 217.248 93.8C216.634 94.0667 215.974 94.2 215.268 94.2C214.561 94.2 213.894 94.0667 213.268 93.8C212.641 93.5333 212.094 93.1667 211.628 92.7C211.174 92.2333 210.814 91.68 210.548 91.04C210.281 90.4 210.148 89.7133 210.148 88.98ZM215.268 92.88C215.774 92.88 216.248 92.78 216.688 92.58C217.141 92.38 217.528 92.1067 217.848 91.76C218.181 91.4 218.441 90.9867 218.628 90.52C218.814 90.04 218.908 89.5267 218.908 88.98C218.908 88.4333 218.814 87.9267 218.628 87.46C218.441 86.98 218.181 86.5667 217.848 86.22C217.528 85.8733 217.141 85.6 216.688 85.4C216.248 85.2 215.774 85.1 215.268 85.1C214.761 85.1 214.281 85.2 213.828 85.4C213.388 85.6 213.001 85.8733 212.668 86.22C212.348 86.5667 212.088 86.98 211.888 87.46C211.701 87.9267 211.608 88.4333 211.608 88.98C211.608 89.5267 211.701 90.04 211.888 90.52C212.074 90.9867 212.328 91.4 212.648 91.76C212.981 92.1067 213.374 92.38 213.828 92.58C214.281 92.78 214.761 92.88 215.268 92.88ZM223.904 79.66V94H222.424V80L223.904 79.66ZM234.248 94V92.94C233.821 93.34 233.328 93.6467 232.768 93.86C232.221 94.06 231.635 94.16 231.008 94.16C230.301 94.16 229.641 94.0267 229.028 93.76C228.415 93.4933 227.881 93.1333 227.428 92.68C226.975 92.2133 226.615 91.66 226.348 91.02C226.095 90.38 225.968 89.7 225.968 88.98C225.968 88.26 226.095 87.5867 226.348 86.96C226.615 86.32 226.975 85.7733 227.428 85.32C227.881 84.8533 228.415 84.4867 229.028 84.22C229.655 83.9533 230.321 83.82 231.028 83.82C231.601 83.82 232.161 83.92 232.708 84.12C233.268 84.3067 233.775 84.5867 234.228 84.96V80L235.708 79.66V94H234.248ZM227.428 88.96C227.428 89.5067 227.521 90.02 227.708 90.5C227.908 90.98 228.175 91.3933 228.508 91.74C228.841 92.0867 229.235 92.36 229.688 92.56C230.141 92.76 230.628 92.86 231.148 92.86C231.775 92.86 232.355 92.74 232.888 92.5C233.435 92.2467 233.881 91.9 234.228 91.46V86.5C233.881 86.0733 233.435 85.74 232.888 85.5C232.341 85.2467 231.761 85.12 231.148 85.12C230.108 85.12 229.228 85.4867 228.508 86.22C227.788 86.9533 227.428 87.8667 227.428 88.96ZM3.34 109.98H5.7V108.08C5.7 107.107 5.96667 106.36 6.5 105.84C7.03333 105.307 7.8 105.04 8.8 105.04C9.06667 105.04 9.30667 105.053 9.52 105.08C9.73333 105.107 9.94 105.153 10.14 105.22V106.54C9.91333 106.473 9.70667 106.427 9.52 106.4C9.33333 106.36 9.12667 106.34 8.9 106.34C8.31333 106.34 7.87333 106.487 7.58 106.78C7.3 107.06 7.16 107.507 7.16 108.12V109.98H10.14V111.24H7.16V120H5.7V111.24H3.34V109.98ZM10.7531 114.98C10.7531 114.26 10.8865 113.58 11.1531 112.94C11.4198 112.3 11.7798 111.747 12.2331 111.28C12.6998 110.813 13.2465 110.447 13.8731 110.18C14.4998 109.913 15.1665 109.78 15.8731 109.78C16.5798 109.78 17.2398 109.913 17.8531 110.18C18.4798 110.447 19.0198 110.813 19.4731 111.28C19.9398 111.747 20.3065 112.3 20.5731 112.94C20.8398 113.58 20.9731 114.26 20.9731 114.98C20.9731 115.713 20.8398 116.4 20.5731 117.04C20.3065 117.68 19.9398 118.233 19.4731 118.7C19.0198 119.167 18.4798 119.533 17.8531 119.8C17.2398 120.067 16.5798 120.2 15.8731 120.2C15.1665 120.2 14.4998 120.067 13.8731 119.8C13.2465 119.533 12.6998 119.167 12.2331 118.7C11.7798 118.233 11.4198 117.68 11.1531 117.04C10.8865 116.4 10.7531 115.713 10.7531 114.98ZM15.8731 118.88C16.3798 118.88 16.8531 118.78 17.2931 118.58C17.7465 118.38 18.1331 118.107 18.4531 117.76C18.7865 117.4 19.0465 116.987 19.2331 116.52C19.4198 116.04 19.5131 115.527 19.5131 114.98C19.5131 114.433 19.4198 113.927 19.2331 113.46C19.0465 112.98 18.7865 112.567 18.4531 112.22C18.1331 111.873 17.7465 111.6 17.2931 111.4C16.8531 111.2 16.3798 111.1 15.8731 111.1C15.3665 111.1 14.8865 111.2 14.4331 111.4C13.9931 111.6 13.6065 111.873 13.2731 112.22C12.9531 112.567 12.6931 112.98 12.4931 113.46C12.3065 113.927 12.2131 114.433 12.2131 114.98C12.2131 115.527 12.3065 116.04 12.4931 116.52C12.6798 116.987 12.9331 117.4 13.2531 117.76C13.5865 118.107 13.9798 118.38 14.4331 118.58C14.8865 118.78 15.3665 118.88 15.8731 118.88ZM23.0295 120V109.98H24.5095V111.4C24.8029 110.88 25.1895 110.48 25.6695 110.2C26.1495 109.907 26.6962 109.76 27.3095 109.76C27.4962 109.76 27.6629 109.773 27.8095 109.8C27.9562 109.813 28.1029 109.847 28.2495 109.9V111.26C28.0762 111.207 27.9029 111.167 27.7295 111.14C27.5562 111.1 27.3829 111.08 27.2095 111.08C26.5962 111.08 26.0562 111.26 25.5895 111.62C25.1229 111.967 24.7629 112.473 24.5095 113.14V120H23.0295ZM37.6609 118.94C37.1009 119.353 36.5143 119.667 35.9009 119.88C35.3009 120.08 34.6409 120.18 33.9209 120.18C33.2009 120.18 32.5209 120.047 31.8809 119.78C31.2543 119.513 30.7076 119.147 30.2409 118.68C29.7876 118.213 29.4276 117.667 29.1609 117.04C28.8943 116.4 28.7609 115.713 28.7609 114.98C28.7609 114.26 28.8876 113.587 29.1409 112.96C29.4076 112.333 29.7609 111.787 30.2009 111.32C30.6409 110.853 31.1609 110.487 31.7609 110.22C32.3743 109.953 33.0209 109.82 33.7009 109.82C34.3676 109.82 34.9876 109.953 35.5609 110.22C36.1476 110.487 36.6476 110.853 37.0609 111.32C37.4876 111.787 37.8209 112.333 38.0609 112.96C38.3143 113.587 38.4409 114.26 38.4409 114.98V115.44H30.2209C30.3276 116.427 30.7343 117.247 31.4409 117.9C32.1476 118.553 32.9943 118.88 33.9809 118.88C34.5009 118.88 35.0076 118.8 35.5009 118.64C35.9943 118.48 36.4076 118.253 36.7409 117.96L37.6609 118.94ZM33.6609 111.12C32.7943 111.12 32.0409 111.413 31.4009 112C30.7743 112.587 30.3943 113.34 30.2609 114.26H36.9609C36.8276 113.38 36.4476 112.64 35.8209 112.04C35.2076 111.427 34.4876 111.12 33.6609 111.12ZM43.2994 120L38.9594 109.98H40.5994L44.0194 118.08L47.4394 109.98H49.0194L44.6994 120H43.2994ZM58.4227 118.94C57.8627 119.353 57.276 119.667 56.6627 119.88C56.0627 120.08 55.4027 120.18 54.6827 120.18C53.9627 120.18 53.2827 120.047 52.6427 119.78C52.016 119.513 51.4693 119.147 51.0027 118.68C50.5493 118.213 50.1893 117.667 49.9227 117.04C49.656 116.4 49.5227 115.713 49.5227 114.98C49.5227 114.26 49.6493 113.587 49.9027 112.96C50.1693 112.333 50.5227 111.787 50.9627 111.32C51.4027 110.853 51.9227 110.487 52.5227 110.22C53.136 109.953 53.7827 109.82 54.4627 109.82C55.1293 109.82 55.7493 109.953 56.3227 110.22C56.9093 110.487 57.4093 110.853 57.8227 111.32C58.2493 111.787 58.5827 112.333 58.8227 112.96C59.076 113.587 59.2027 114.26 59.2027 114.98V115.44H50.9827C51.0893 116.427 51.496 117.247 52.2027 117.9C52.9093 118.553 53.756 118.88 54.7427 118.88C55.2627 118.88 55.7693 118.8 56.2627 118.64C56.756 118.48 57.1693 118.253 57.5027 117.96L58.4227 118.94ZM54.4227 111.12C53.556 111.12 52.8027 111.413 52.1627 112C51.536 112.587 51.156 113.34 51.0227 114.26H57.7227C57.5893 113.38 57.2093 112.64 56.5827 112.04C55.9693 111.427 55.2493 111.12 54.4227 111.12ZM61.2717 120V109.98H62.7517V111.4C63.0451 110.88 63.4317 110.48 63.9117 110.2C64.3917 109.907 64.9384 109.76 65.5517 109.76C65.7384 109.76 65.9051 109.773 66.0517 109.8C66.1984 109.813 66.3451 109.847 66.4917 109.9V111.26C66.3184 111.207 66.1451 111.167 65.9717 111.14C65.7984 111.1 65.6251 111.08 65.4517 111.08C64.8384 111.08 64.2984 111.26 63.8317 111.62C63.3651 111.967 63.0051 112.473 62.7517 113.14V120H61.2717Z" fill="black"/>
<path d="M81.2098 53.9507C82.1063 54.8342 83.0843 55.2758 84.1438 55.2758C84.3475 55.2758 84.7754 55.2357 85.4274 55.1554C85.7127 55.7175 85.8553 56.2396 85.8553 56.7214C85.8553 57.9663 84.5309 58.5886 81.8821 58.5886C80.7004 58.5886 79.5594 58.167 78.4591 57.3238C77.3588 56.4403 76.2994 55.1956 75.2806 53.5893C74.2618 51.943 73.4671 50.5777 72.8967 49.4935C72.3669 48.3692 71.7149 46.9437 70.9406 45.217C70.1664 45.0564 69.7793 44.6549 69.7793 44.0124C69.7793 43.6108 69.9219 43.0085 70.2071 42.2054C71.1037 42.4061 71.8779 42.5065 72.5299 42.5065C74.4045 42.5065 75.9326 41.9444 77.1143 40.82C78.2961 39.6556 78.887 38.0895 78.887 36.1219C78.887 33.7929 78.2349 32.1666 76.931 31.2431C75.627 30.3195 73.6302 29.8577 70.9406 29.8577C70.6961 29.8577 69.4736 29.9179 67.2731 30.0384C67.4361 31.8856 67.5176 35.0377 67.5176 39.4949V48.7707C67.5176 52.9468 67.8232 56.0187 68.4345 57.9863C67.7418 58.1871 66.8452 58.2875 65.745 58.2875C64.6447 58.2875 63.8908 58.0867 63.4833 57.6852C63.1166 57.2836 62.9332 56.601 62.9332 55.6372C62.9332 55.1554 62.9535 53.9307 62.9943 51.9631C63.0351 49.9954 63.0554 48.4495 63.0554 47.3251V37.9289C63.0554 33.5118 62.8313 29.9179 62.3831 27.1472C64.5836 26.7858 67.1509 26.6051 70.0849 26.6051C79.2129 26.6051 83.777 29.7573 83.777 36.0617C83.777 38.5512 83.0435 40.5791 81.5765 42.1451C80.1503 43.7112 78.2349 44.7552 75.8307 45.2772C78.3165 49.9754 80.1095 52.8665 81.2098 53.9507ZM104.321 58.5886C99.5937 58.5886 95.8249 57.1431 93.0131 54.2519C90.2013 51.3607 88.7954 47.4858 88.7954 42.627C88.7954 37.7281 90.2013 33.8331 93.0131 30.9419C95.8249 28.0507 99.5937 26.6051 104.321 26.6051C109.089 26.6051 112.879 28.0507 115.691 30.9419C118.543 33.8331 119.97 37.7281 119.97 42.627C119.97 47.4858 118.543 51.3607 115.691 54.2519C112.879 57.1431 109.089 58.5886 104.321 58.5886ZM115.079 43.4703C115.079 41.1814 114.753 39.0532 114.101 37.0856C113.449 35.118 112.268 33.4315 110.556 32.0261C108.885 30.6207 106.828 29.9179 104.382 29.9179C101.082 29.9179 98.4533 30.9821 96.4973 33.1103C94.5814 35.2384 93.6244 37.9489 93.6244 41.2417C93.6244 43.651 93.9501 45.8796 94.6024 47.9275C95.2538 49.9754 96.4152 51.7221 98.0865 53.1677C99.757 54.6133 101.835 55.3361 104.321 55.3361C107.744 55.3361 110.393 54.2519 112.268 52.0835C114.142 49.875 115.079 47.0039 115.079 43.4703ZM161.652 17.9919C162.792 17.751 163.648 17.6305 164.219 17.6305C165.156 17.6305 165.829 17.8514 166.236 18.2931C166.643 18.7347 166.848 19.4977 166.848 20.5819C166.848 24.9989 165.421 30.9218 162.569 38.3505C159.716 45.7391 156.802 51.3005 153.828 55.0349C152.809 56.36 151.953 57.2435 151.261 57.6852C150.567 58.1268 149.753 58.3477 148.816 58.3477C148.367 58.3477 147.694 58.3075 146.798 58.2272C145.494 51.7623 143.273 44.3537 140.136 36.0014C136.997 27.6491 134.329 22.4089 132.128 20.2807C133.84 18.795 135.307 18.0521 136.529 18.0521C137.792 18.0521 138.791 18.9154 139.524 20.6421C141.114 24.2159 142.988 29.2956 145.148 35.881C147.308 42.4664 148.999 48.1885 150.221 53.0472C152.625 50.397 155.173 45.5584 157.862 38.5312C160.552 31.4639 161.896 25.6214 161.896 21.0035C161.896 19.5579 161.814 18.554 161.652 17.9919ZM183.059 45.4579C182.285 43.651 180.635 39.3744 178.108 32.6284C176.071 38.4107 174.461 42.6672 173.279 45.3977C175.724 45.478 177.599 45.5182 178.903 45.5182C180.818 45.5182 182.203 45.4981 183.059 45.4579ZM177.924 48.7105C177.069 48.7105 175.093 48.6703 171.995 48.59C171.792 49.0719 171.344 50.136 170.651 51.7824C169.999 53.4287 169.469 54.814 169.061 55.9384C168.654 57.0226 168.308 58.0867 168.022 59.1307C165.618 58.8095 164.416 58.1871 164.416 57.2635C164.416 56.8619 164.599 56.1994 164.966 55.2758C165.374 54.3523 166.046 52.8264 166.983 50.6982C167.961 48.5298 168.878 46.3614 169.734 44.1931C172.912 36.1219 174.99 30.46 175.968 27.2075C176.621 27.087 177.374 27.0268 178.23 27.0268C179.127 27.0268 179.758 27.1673 180.125 27.4484C180.492 27.6893 180.9 28.3921 181.348 29.5565C181.674 30.3998 182.55 32.7489 183.976 36.6038C185.443 40.4185 186.584 43.3498 187.399 45.3977C189.355 50.136 191.271 54.2519 193.145 57.7454C192.004 58.3075 191.087 58.5886 190.394 58.5886C189.172 58.5886 188.337 58.1871 187.888 57.384C187.643 56.8218 186.442 53.8905 184.282 48.59C180.777 48.6703 178.658 48.7105 177.924 48.7105ZM196.005 27.2677C196.739 27.0268 197.595 26.9063 198.573 26.9063C199.673 26.9063 200.468 27.087 200.957 27.4484C201.487 27.8098 201.751 28.4322 201.751 29.3156C201.751 30.6407 201.609 33.5519 201.323 38.0493C201.079 42.5467 200.957 46.0603 200.957 48.59C200.957 50.7182 201.589 52.3245 202.852 53.4086C204.115 54.4928 205.602 55.0349 207.314 55.0349C208.863 55.0349 210.492 54.6735 212.204 53.9507C213.915 53.2279 215.301 52.3847 216.36 51.421C216.36 51.2202 216.36 50.7182 216.36 49.9151C216.401 49.0719 216.421 47.6464 216.421 45.6386C216.421 43.6309 216.421 41.061 216.421 37.9289C216.421 33.7528 216.299 30.1388 216.055 27.087C216.707 26.9665 217.502 26.9063 218.439 26.9063C220.313 26.9063 221.25 27.5086 221.25 28.7133C221.25 28.7535 221.21 29.3357 221.128 30.46C221.088 31.5442 221.027 33.2508 220.945 35.5798C220.864 37.9088 220.822 40.5991 220.822 43.651C220.822 48.5097 220.864 51.7623 220.945 53.4086C221.067 55.055 221.353 56.5809 221.8 57.9863C221.108 58.1871 220.211 58.2875 219.111 58.2875C218.052 58.2875 217.318 58.1068 216.91 57.7454C216.504 57.3438 216.299 56.621 216.299 55.577V54.8542C214.954 55.9384 213.365 56.8419 211.531 57.5647C209.698 58.2473 208.007 58.5886 206.458 58.5886C203.361 58.5886 200.896 57.906 199.062 56.5407C197.269 55.1754 196.372 52.726 196.372 49.1924C196.372 47.3452 196.433 44.8556 196.556 41.7235C196.719 38.5512 196.8 36.2022 196.8 34.6763C196.8 31.6245 196.536 29.155 196.005 27.2677Z" fill="black"/>
<path d="M286.05 47.842V38.4457C286.05 36.5986 286.009 34.109 285.928 30.9769C281.16 30.9769 278.002 31.0371 276.454 31.1576C276.372 30.9568 276.331 30.4548 276.331 29.6518C276.331 28.929 276.495 28.4271 276.82 28.146C277.187 27.8648 277.757 27.7243 278.532 27.7243C278.858 27.7243 279.652 27.7243 280.916 27.7243C282.219 27.6841 283.28 27.6641 284.094 27.6641H290.023C295.444 27.6641 298.744 27.6239 299.926 27.5436C300.007 27.9452 300.048 28.4271 300.048 28.9892C300.048 30.3143 299.315 30.9769 297.848 30.9769H290.757C290.757 31.4186 290.716 32.1815 290.635 33.2657C290.594 34.3097 290.553 35.3939 290.512 36.5183C290.471 37.6426 290.451 38.7067 290.451 39.7106V49.1671C290.451 53.3834 290.777 56.4753 291.429 58.4429C290.818 58.6838 289.921 58.8043 288.74 58.8043C287.64 58.8043 286.886 58.6036 286.478 58.202C286.111 57.8004 285.928 57.1178 285.928 56.1541C285.928 55.6722 285.948 54.4475 285.989 52.4799C286.03 50.5123 286.05 48.9664 286.05 47.842Z" fill="black"/>
<path d="M249.41 65.4814C263.791 65.4814 275.449 64.7792 275.449 63.913C275.449 63.0469 263.791 62.3447 249.41 62.3447C235.029 62.3447 223.371 63.0469 223.371 63.913C223.371 64.7792 235.029 65.4814 249.41 65.4814Z" fill="#F3EEE8"/>
<path d="M245.587 55.3223V64.0293L229.921 63.3528L232.822 55.3223H245.587Z" fill="#FFCD2F" stroke="#FF9300" stroke-width="3"/>
<path d="M245.827 55.3652V63.9869L269.431 63.3101L265.106 55.3652H245.827Z" fill="#FFB200" stroke="#FF9300" stroke-width="4"/>
<path d="M232.826 49.1619L245.586 47.2513V57.1978H229.922L232.826 49.1619Z" fill="#FFCD2F" stroke="#FF9300" stroke-width="3"/>
<path d="M265.102 49.2074L245.89 47.2909L245.829 57.1543H269.426L265.102 49.2074Z" fill="#FFB200" stroke="#FF9300" stroke-width="4"/>
<path d="M245.337 56.9495H230.309L245.337 49.6095V56.9495Z" fill="#FFE07D"/>
<path d="M245.274 63.7255L230.245 63.0983L245.274 57.3267V63.7255Z" fill="#FFE07D"/>
<path d="M232.826 41.445L245.586 39.5344V49.4808H229.922L232.826 41.445Z" fill="#FFCD2F" stroke="#FF9300" stroke-width="3"/>
<path d="M265.102 41.4906L245.89 39.5741L245.829 49.4374H269.426L265.102 41.4906Z" fill="#FFB200" stroke="#FF9300" stroke-width="4"/>
<path d="M245.337 49.2332H230.309L245.337 41.8933V49.2332Z" fill="#FFE07D"/>
<path d="M232.826 33.7281L245.586 31.8175V41.764H229.922L232.826 33.7281Z" fill="#FFCD2F" stroke="#FF9300" stroke-width="3"/>
<path d="M265.102 33.7743L245.89 31.8579L245.829 41.7213H269.426L265.102 33.7743Z" fill="#FFB200" stroke="#FF9300" stroke-width="4"/>
<path d="M245.337 41.5167H230.309L245.337 34.1768V41.5167Z" fill="#FFE07D"/>
<path d="M232.826 26.0124L245.586 24.1018V34.0482H229.922L232.826 26.0124Z" fill="#FFCD2F" stroke="#FF9300" stroke-width="3"/>
<path d="M265.102 26.0575L245.89 24.1409L245.829 34.0043H269.426L265.102 26.0575Z" fill="#FFB200" stroke="#FF9300" stroke-width="4"/>
<path d="M245.337 33.8007H230.309L245.337 26.4609V33.8007Z" fill="#FFE07D"/>
<path d="M232.826 18.2959L245.586 16.3853V26.3318H229.922L232.826 18.2959Z" fill="#FFCD2F" stroke="#FF9300" stroke-width="3"/>
<path d="M265.102 18.3417L245.89 16.4252L245.829 26.2885H269.426L265.102 18.3417Z" fill="#FFB200" stroke="#FF9300" stroke-width="4"/>
<path d="M245.337 26.0832H230.309L245.337 18.7433V26.0832Z" fill="#FFE07D"/>
<path d="M232.826 10.58L245.586 8.66934V18.6158H229.922L232.826 10.58Z" fill="#FFCD2F" stroke="#FF9300" stroke-width="3"/>
<path d="M265.102 10.6253L245.89 8.70877L245.829 18.5721H269.426L265.102 10.6253Z" fill="#FFB200" stroke="#FF9300" stroke-width="4"/>
<path d="M245.337 18.3678H230.309L245.337 8.95772V18.3678Z" fill="#FFE07D"/>
<path fill-rule="evenodd" clip-rule="evenodd" d="M24.2265 12.1655V15.382L23.5948 15.5431C20.9194 16.2253 18.9004 17.0204 17.0859 18.1066C16.6008 18.397 16.1356 18.5931 16.0521 18.5422C15.9687 18.4914 14.9479 17.4987 13.7838 16.3361C12.6198 15.1737 11.6151 14.2223 11.5512 14.2221C11.4053 14.2215 5.35064 20.1656 5.35064 20.3094C5.35064 20.3674 6.34853 21.4009 7.56819 22.6062L9.78586 24.7973L9.25494 25.6151C8.11291 27.3744 6.69172 30.7348 6.4438 32.2621L6.35299 32.8217H3.1765H0V37.2125V41.6031L3.07067 41.6429L6.14135 41.6824L6.47843 43.0005C7.06745 45.3038 7.86976 47.2321 9.02878 49.13L9.55227 49.9871L7.45136 52.0341C6.29592 53.1601 5.35064 54.127 5.35064 54.1828C5.35064 54.3337 11.3762 60.2092 11.5309 60.2092C11.6039 60.2092 12.579 59.309 13.6976 58.2086L15.7318 56.2082L16.7465 56.7991C18.9027 58.055 21.0559 58.9435 23.0747 59.4104L24.2265 59.677V62.5794V65.4817H28.6854H33.1442V62.5858V59.6901L33.9989 59.4991C36.1004 59.0297 38.318 58.1308 40.6016 56.823C41.1471 56.5106 41.625 56.2548 41.6634 56.2548C41.7017 56.2548 42.6345 57.1446 43.7362 58.232C44.8377 59.3195 45.7985 60.2092 45.8712 60.2092C46.0416 60.2092 52.0201 54.3162 52.0201 54.1484C52.0201 54.0788 51.0848 53.0955 49.9416 51.9634L47.8628 49.905L48.1693 49.4552C48.6286 48.781 50.0169 45.9056 50.3665 44.9045C50.5353 44.4211 50.7993 43.4985 50.953 42.854L51.2325 41.6824L54.3016 41.6429L57.3708 41.6031V37.2125V32.8217H54.2495C52.5329 32.8217 51.1283 32.7974 51.1283 32.7675C51.1283 32.7378 50.9314 32.0601 50.6906 31.2616C50.1211 29.3724 49.3543 27.6211 48.4431 26.1284C48.0398 25.4677 47.7099 24.8738 47.7099 24.8085C47.7099 24.743 48.6797 23.7356 49.865 22.5697C51.0503 21.4038 52.0201 20.3825 52.0201 20.3001C52.0201 20.1439 46.0653 14.2216 45.9082 14.2216C45.8589 14.2216 44.8087 15.2245 43.5743 16.4504L41.3301 18.6792L40.7671 18.3465C38.8021 17.1854 35.6215 15.9195 33.553 15.4754L33.1442 15.3877V12.1684V8.94914H28.6854H24.2265V12.1655ZM32.2525 21.386C38.999 22.8701 44.1563 28.2251 45.2523 34.8844C46.7301 43.8634 40.5981 52.2863 31.4374 53.8609C29.67 54.1646 26.4189 54.0552 24.8049 53.6378C21.8343 52.8695 19.4146 51.5829 17.3626 49.6803C15.1454 47.6247 13.7682 45.5783 12.8538 42.9809C11.3992 38.8488 11.6354 34.4903 13.5297 30.507C15.5075 26.3482 19.3047 23.0889 23.7255 21.7555C26.4761 20.9259 29.554 20.7926 32.2525 21.386Z" fill="black"/>
<path fill-rule="evenodd" clip-rule="evenodd" d="M27.0537 24.3135C21.7284 24.9674 17.2431 28.8133 15.8096 33.9542C15.3759 35.5091 15.3318 38.8781 15.7265 40.3073C17.1361 45.4129 20.9414 49.0329 25.9698 50.052C28.1623 50.4964 30.9352 50.3113 33.0803 49.5772C36.3526 48.4576 39.2415 45.8418 40.6694 42.706C41.3773 41.1513 41.7014 39.8068 41.7973 38.0263C42.0177 33.9343 40.6285 30.5492 37.5669 27.7182C34.7889 25.1497 30.7902 23.8545 27.0537 24.3135ZM30.6884 29.4103C33.7645 30.217 36.082 32.6606 36.7209 35.7711C37.8982 41.5026 32.4471 46.6122 26.6865 45.1768C22.9674 44.25 20.3925 41.0345 20.3976 37.3227C20.4027 33.5497 22.8148 30.4376 26.5335 29.4061C27.4535 29.1508 29.7076 29.1532 30.6884 29.4103Z" fill="black"/>
<path fill-rule="evenodd" clip-rule="evenodd" d="M27.7564 32.7494C25.7133 33.1529 24.2267 34.9361 24.2193 36.9921C24.2133 38.6597 25.0532 40.0679 26.5365 40.8775C27.2464 41.2649 27.4723 41.3126 28.5971 41.3109C29.9843 41.309 30.6268 41.0746 31.6339 40.2032C32.9655 39.0512 33.4056 36.707 32.5819 35.1545C31.6278 33.3562 29.6573 32.374 27.7564 32.7494Z" fill="black"/>
</svg>
